<?xml version="1.0" encoding="UTF-8"?>
<!-- <svg width="32px" height="32px" version="1.1" xmlns="http://www.w3.org/2000/svg" xmlns:xlink="http://www.w3.org/1999/xlink"> -->
<svg viewBox="0 0 1024 1024" version="1.1" xmlns="http://www.w3.org/2000/svg" xmlns:xlink="http://www.w3.org/1999/xlink">
    <path d="M427.988095,593.222222 L427.988095,633.666667 L276.02381,633.666667 L222.630952,581.088889 L222.630952,532.555556 L120,532.555556 L120,492.111111 L222.630952,492.111111 L222.630952,443.577778 L276.02381,391 L427.988095,391 L427.988095,431.444444 L530.666667,431.444444 L530.666667,471.888889 L427.988095,471.888889 L427.988095,552.777778 L530.666667,552.777778 L530.666667,593.222222 L427.988095,593.222222 Z M605.333333,633.666667 L605.333333,391 L752.698337,391 L804.47523,443.577778 L804.47523,492.111111 L904,492.111111 L904,532.555556 L804.47523,532.555556 L804.47523,581.088889 L752.698337,633.666667 L605.333333,633.666667 Z" id="path-1"></path>
</svg>
