<?xml version="1.0" encoding="UTF-8"?>
<svg viewBox="0 0 1024 1024" version="1.1" xmlns="http://www.w3.org/2000/svg" xmlns:xlink="http://www.w3.org/1999/xlink">
    <path d="M254,629.812613 C299.007949,678.74323 518.803275,675.737017 518.803275,675.737017 C518.803275,675.737017 729.180351,676.741397 770,628.849794 L770,737.7315 C733.969047,785.810126 519.852158,783.981462 519.852158,783.981462 C519.852158,783.981462 293.018463,786.405827 254,735.805861 L254,629.812613 Z M254,285.443051 C293.184837,234.8985 514.622209,240.155909 514.622209,240.155909 C514.622209,240.155909 733.932878,236.318485 770,284.480232 L770,393.361938 C733.969047,441.440564 519.852158,439.6119 519.852158,439.6119 C519.852158,439.6119 293.018463,442.036265 254,391.4363 L254,285.443051 Z M254,453.062707 C299.007949,501.993324 518.803275,498.987111 518.803275,498.987111 C518.803275,498.987111 729.180351,499.991491 770,452.099887 L770,560.981594 C733.969047,609.06022 519.852158,607.231555 519.852158,607.231555 C519.852158,607.231555 293.018463,609.655921 254,559.055955 L254,453.062707 Z" id="path-1"></path>
</svg>