<?xml version="1.0" encoding="utf-8"?>
<!-- Generator: Adobe Illustrator 19.2.1, SVG Export Plug-In . SVG Version: 6.00 Build 0)  -->
<svg version="1.1" id="Layer_1" xmlns="http://www.w3.org/2000/svg" xmlns:xlink="http://www.w3.org/1999/xlink" x="0px" y="0px"
	 viewBox="0 0 1024 1007.5" style="enable-background:new 0 0 1024 1007.5;" xml:space="preserve">
<path id="path-1" d="M0,722C89.3,812.6,525.5,807,525.5,807s417.5,1.9,498.5-86.8v201.7c-71.5,89-496.4,85.7-496.4,85.7
	S77.4,1012,0,918.3V722z M0,84.2C77.8-9.4,517.2,0.3,517.2,0.3S952.4-6.8,1024,82.4V284c-71.5,89-496.4,85.7-496.4,85.7
	S77.4,374.2,0,280.5V84.2z M0,394.6c89.3,90.6,525.5,85.1,525.5,85.1s417.5,1.9,498.5-86.8v201.7c-71.5,89-496.4,85.7-496.4,85.7
	S77.4,684.7,0,590.9V394.6z"/>
</svg>
