<?xml version="1.0" encoding="utf-8"?>
<!-- Generator: Adobe Illustrator 19.2.1, SVG Export Plug-In . SVG Version: 6.00 Build 0)  -->
<svg version="1.1" id="Layer_1" xmlns="http://www.w3.org/2000/svg" xmlns:xlink="http://www.w3.org/1999/xlink" x="0px" y="0px"
	 viewBox="0 0 1024 966.1" style="enable-background:new 0 0 1024 966.1;" xml:space="preserve">
<path id="path-1" d="M998,2.2c2.5-1.4,5.2-2.2,8.1-2.2c4.7,0,8.8,1.7,12.2,5.1c3.4,3.4,5.2,7.5,5.2,12.1v793.6
	c0,7.2-3.1,12.2-9.2,15.1L754,963.9c-2.5,1.4-5.2,2.2-8.1,2.2c-4.7,0-8.8-1.7-12.2-5.1c-3.4-3.4-5.2-7.5-5.2-12.1V155.3
	c0-7.2,3.1-12.2,9.2-15.1L998,2.2z M356.4,17.2c0-4.7,1.7-8.7,5.1-12.1C364.9,1.7,369,0,373.7,0c2.9,0,5.4,0.5,7.6,1.6l276.2,138
	c6.5,3.6,9.7,8.8,9.7,15.6v793.6c0,4.7-1.7,8.7-5.1,12.1c-3.4,3.4-7.5,5.1-12.1,5.1c-2.9,0-5.4-0.5-7.6-1.6l-276.2-138
	c-6.5-3.6-9.7-8.8-9.7-15.6V17.2z M9.2,140.2C3.1,143,0,148.1,0,155.3v793.6c0,4.7,1.7,8.7,5.1,12.1c3.4,3.4,7.5,5.1,12.2,5.1
	c2.9,0,5.6-0.7,8.1-2.2l260.3-138c6.1-2.9,9.2-7.9,9.2-15.1V17.2c0-4.7-1.7-8.7-5.1-12.1c-3.4-3.4-7.5-5.1-12.2-5.1
	c-2.9,0-5.6,0.7-8.1,2.2L9.2,140.2z"/>
</svg>
