<?xml version="1.0" encoding="UTF-8"?>
<svg viewBox="0 0 1024 1024" version="1.1" xmlns="http://www.w3.org/2000/svg" xmlns:xlink="http://www.w3.org/1999/xlink">
    <path d="M771.000418,256.144238 C772.342288,255.385927 773.786331,255 775.325736,255 C777.825565,255 779.99163,255.907266 781.817118,257.721798 C783.649418,259.5431 784.562162,261.696164 784.562162,264.174219 L784.562162,686.391406 C784.562162,690.216819 782.927396,692.891222 779.657865,694.421387 L641.145528,767.848991 C639.796846,768.614073 638.352803,769 636.82021,769 C634.313569,769 632.147505,768.092734 630.328828,766.271432 C628.496528,764.4569 627.583784,762.303836 627.583784,759.81901 L627.583784,337.601823 C627.583784,333.783181 629.21855,331.108778 632.488081,329.571843 L771.000418,256.144238 Z M429.624324,264.174219 C429.624324,261.696164 430.525382,259.5431 432.347821,257.721798 C434.163485,255.907266 436.317892,255 438.804268,255 C440.335388,255 441.676812,255.284367 442.821764,255.859871 L589.77539,329.287476 C593.217022,331.203567 594.937838,333.972759 594.937838,337.601823 L594.937838,759.81901 C594.937838,762.303836 594.030006,764.4569 592.214342,766.271432 C590.391903,768.092734 588.237495,769 585.757894,769 C584.219999,769 582.885351,768.715633 581.740398,768.140129 L434.786772,694.712524 C431.34514,692.803204 429.624324,690.027241 429.624324,686.391406 L429.624324,264.174219 Z M244.904297,329.571843 C241.634766,331.108778 240,333.783181 240,337.601823 L240,759.81901 C240,762.303836 240.912744,764.4569 242.738233,766.271432 C244.570532,768.092734 246.729786,769 249.236426,769 C250.775831,769 252.213062,768.614073 253.561744,767.848991 L392.074081,694.421387 C395.343613,692.891222 396.978378,690.216819 396.978378,686.391406 L396.978378,264.174219 C396.978378,261.696164 396.065634,259.5431 394.240146,257.721798 C392.407846,255.907266 390.241781,255 387.741952,255 C386.202548,255 384.758505,255.385927 383.416634,256.144238 L244.904297,329.571843 Z" id="path-1"></path>
</svg>