<?xml version="1.0" encoding="UTF-8"?>
<svg viewBox="0 0 1024 1024" version="1.1" xmlns="http://www.w3.org/2000/svg" xmlns:xlink="http://www.w3.org/1999/xlink">
    <path d="M724.796149,635.530912 L726.137931,904 L502.689655,740.640641 L511.525704,735.999129 C414.140132,735.755441 320.225292,684.356922 272.320595,594.867935 C203.725453,466.73334 255.447689,309.046354 387.83344,242.66894 C388.70834,242.230252 389.584574,241.79665 390.462105,241.368123 C392.051581,174.258 446.460078,120 512,120 C578.28875,120 631.959333,174.246512 633.537887,241.346808 C682.544139,265.213051 724.511616,303.713387 751.680473,354.464365 C801.802197,448.09092 787.683145,557.497707 724.796149,635.530912 Z M396.703723,284.119093 C292.495542,343.048812 253.249767,471.352716 309.393473,576.228234 C367.361482,684.516121 505.072598,726.823976 616.975542,670.714135 C728.86216,614.612479 772.567315,481.371867 714.607762,373.104378 C694.001956,334.61307 663.320328,304.457997 627.303732,284.096292 C619.880379,306.793076 606.246642,326.471187 588.462988,341.219342 L669.513756,538.190529 C669.513756,538.975197 669.513756,540.549731 670.275862,542.124264 C670.275862,565.742265 652.691898,587.785732 620.577443,602.746398 C591.521508,616.127333 552.527907,624 512,624 C471.47714,624 432.478492,616.127333 403.422557,602.746398 C371.308102,587.001064 353.724138,565.742265 353.724138,542.124264 C353.724138,540.549731 354.486244,539.765062 354.486244,538.190529 L435.537012,341.219342 C417.759313,326.476126 404.128751,306.806254 396.703727,284.119091 Z" id="path-1"></path>
</svg>