<?xml version="1.0" encoding="utf-8"?>
<!-- Generator: Adobe Illustrator 19.2.1, SVG Export Plug-In . SVG Version: 6.00 Build 0)  -->
<svg version="1.1" id="Layer_1" xmlns="http://www.w3.org/2000/svg" xmlns:xlink="http://www.w3.org/1999/xlink" x="0px" y="0px"
	 viewBox="0 0 705.3 1024" style="enable-background:new 0 0 705.3 1024;" xml:space="preserve">
<path id="path-1" d="M630.6,673.3l1.8,350.7L332.6,802.7l0,0c-101.3-3.9-230.4-65.6-292.9-182.5c-89.6-167.4-22-373.3,150.9-460
	c1.1-0.6,2.3-1.1,3.4-1.7C196,70.9,267,0,352.7,0c86.6,0,156.7,70.9,158.7,158.5c64,31.2,118.8,81.5,154.3,147.7
	C731.2,428.5,712.7,571.4,630.6,673.3z M202.1,214.4C66,291.3,14.7,458.9,88,595.9c75.7,141.4,255.6,196.7,401.7,123.4
	C635.9,646,693,472,617.3,330.6c-26.9-50.3-67-89.7-114-116.3c-9.7,29.6-27.5,55.3-50.7,74.6l105.9,257.3c0,1,0,3.1,1,5.1
	c0,30.8-23,59.6-64.9,79.2c-38,17.5-88.9,27.8-141.8,27.8c-52.9,0-103.9-10.3-141.8-27.8c-41.9-20.6-64.9-48.3-64.9-79.2
	c0-2.1,1-3.1,1-5.1l105.9-257.3C229.6,269.7,211.8,244,202.1,214.4z"/>
</svg>
