<?xml version="1.0" encoding="UTF-8"?>
<svg width="32px" height="32px" viewBox="0 0 32 32" version="1.1" xmlns="http://www.w3.org/2000/svg" xmlns:xlink="http://www.w3.org/1999/xlink">
    <!-- Generator: Sketch 53.1 (72631) - https://sketchapp.com -->
    <title>Icon/32/Search  </title>
    <desc>Created with Sketch.</desc>
    <g id="Icon/32/Search--" stroke="none" stroke-width="1" fill="none" fill-rule="evenodd">
        <path d="M32,29.1188157 L22.1754671,19.2942828 C25.8545234,14.1174522 24.9535521,6.98511957 20.1027132,2.88580331 C15.2518744,-1.21351294 8.069166,-0.912485408 3.5783403,3.5783403 C-0.912485408,8.069166 -1.21351294,15.2518744 2.88580331,20.1027132 C6.98511957,24.9535521 14.1174522,25.8545234 19.2942828,22.1754671 L29.1188157,32 L32,29.1188157 Z M12.2287638,20.3734543 C7.73057546,20.3734543 4.08407332,16.7269522 4.08407332,12.2287638 C4.08407332,7.73057546 7.73057546,4.08407332 12.2287638,4.08407332 C16.7269522,4.08407332 20.3734543,7.73057546 20.3734543,12.2287638 C20.3734543,14.38887 19.5153555,16.4605039 17.9879297,17.9879297 C16.4605039,19.5153555 14.38887,20.3734543 12.2287638,20.3734543 Z" id="Shape" fill="#000000"></path>
    </g>
</svg>