<svg viewBox="0 0 32 32" xmlns="http://www.w3.org/2000/svg"><path d="M30.7 18a14.9 14.9 0 0 1-3.2-7.3A2 2 0 0 0 25.6 9h-8l1.7-1.7a2 2 0 0 0 1.1.3 2.7 2.7 0 1 0-2.7-2.7 2.7 2.7 0 0 0 .3 1.2l-1.7 1.7-1.6-1.6A2.4 2.4 0 0 0 15 5a2.7 2.7 0 1 0-2.7 2.7l1.2-.2L15 9H6.4a1.9 1.9 0 0 0-1.9 1.7A14.9 14.9 0 0 1 1.3 18 5.6 5.6 0 0 0 0 21.5v4.8a3.5 3.5 0 0 0 3.5 3.4h25a3.5 3.5 0 0 0 3.5-3.4v-4.8a5.6 5.6 0 0 0-1.3-3.5zM28 25.7H4v-4.2a1.2 1.2 0 0 1 .3-.8h.1A18.4 18.4 0 0 0 8.1 13h15.8a18.4 18.4 0 0 0 3.7 7.6h.1a1.2 1.2 0 0 1 .3.8v4.3zm-11.9-8.6.5-.2H18l.7.2.6-1.6-.9-.2h-1.1a3.2 3.2 0 0 0-1.4.2l-1.2.5-.9.9-.6 1.1h-.7l-.4 1.3h1a.6.6 0 0 0-.1.4v.4h-.5l-.4 1.3h1.1a3.7 3.7 0 0 0 .5 1.1 2.4 2.4 0 0 0 .8.9 2.4 2.4 0 0 0 1.1.6 3.2 3.2 0 0 0 1.4.3l1.3-.2.9-.3-.5-1.6a2.4 2.4 0 0 1-1.5.4h-.7l-.6-.2-.5-.4c-.1-.2-.2-.3-.2-.5h2.2l.5-1.3h-3v-.8h3.2l.4-1.3h-3.2a.5.5 0 0 1 .3-.5 1 1 0 0 1 .5-.5z" fill-rule="evenodd"/></svg>