<?xml version="1.0" encoding="UTF-8"?>
<svg viewBox="0 0 100 68" version="1.1" xmlns="http://www.w3.org/2000/svg" xmlns:xlink="http://www.w3.org/1999/xlink">
    <g id="logo" stroke="none" stroke-width="1" fill="none" fill-rule="evenodd">
        <path d="M39.4770152,10.7388535 C39.0041858,10.9647311 38.4853947,11.1406524 37.9206263,11.2666226 C37.3558578,11.3925928 36.7057272,11.455577 35.9702148,11.455577 C35.2171902,11.455577 34.5298467,11.3361243 33.9081636,11.0972152 C33.2864805,10.8583062 32.7523664,10.5238386 32.3058054,10.0938023 C31.8592443,9.66376609 31.5111945,9.15120532 31.2616457,8.55610465 C31.0120968,7.96100398 30.8873243,7.30292807 30.8873243,6.58185719 C30.8873243,5.84341111 31.0164748,5.17664773 31.2747798,4.58154706 C31.5330847,3.98644639 31.8877014,3.48040122 32.3386406,3.06339638 C32.7895797,2.64639153 33.3215048,2.32495511 33.9344318,2.09907749 C34.5473588,1.87319986 35.2128124,1.76026274 35.9308125,1.76026274 C36.675081,1.76026274 37.3558576,1.86668426 37.9731626,2.07953048 C38.5904676,2.29237671 39.0873688,2.57254764 39.4638811,2.92005168 L38.3212158,4.14499729 C38.0848011,3.88436926 37.7542633,3.66283876 37.3295925,3.48039914 C36.9049216,3.29795952 36.4430443,3.20674108 35.9439466,3.20674108 C35.453605,3.20674108 35.0092396,3.29361578 34.6108371,3.4673678 C34.2124346,3.64111982 33.8731408,3.88002527 33.5929456,4.1840913 C33.3127504,4.48815734 33.0960402,4.84434364 32.9428084,5.25266088 C32.7895767,5.66097813 32.712962,6.10403914 32.712962,6.58185719 C32.712962,7.07705045 32.7895767,7.53097079 32.9428084,7.94363184 C33.0960402,8.35629289 33.3149394,8.71465105 33.5995126,9.01871709 C33.8840859,9.32278312 34.2299466,9.5595167 34.6371053,9.72892492 C35.0442639,9.89833314 35.5061412,9.98303598 36.0227511,9.98303598 C36.7319952,9.98303598 37.349291,9.87444259 37.874657,9.65725257 L37.874657,7.31161203 L35.9176784,7.31161203 L35.9176784,5.95635305 L39.4770152,5.95635305 L39.4770152,10.7388535 Z M47.4232767,8.17168023 L47.4232767,8.38018161 C47.4232767,8.44968242 47.4188988,8.51918218 47.4101427,8.58868299 L42.616202,8.58868299 C42.6337142,8.81456061 42.692817,9.02088804 42.7935121,9.20767147 C42.8942073,9.39445489 43.0277358,9.55517309 43.1941017,9.68983091 C43.3604676,9.82448873 43.5487209,9.93091024 43.7588673,10.0090987 C43.9690137,10.0872871 44.1879129,10.1263807 44.4155715,10.1263807 C44.809596,10.1263807 45.1423228,10.054709 45.4137619,9.91136363 C45.685201,9.76801821 45.9084782,9.57037825 46.0836002,9.31843782 L47.1343269,10.1524434 C46.5126438,10.986453 45.6107791,11.4034516 44.4287056,11.4034516 C43.938364,11.4034516 43.4874316,11.3274363 43.0758949,11.1754033 C42.6643583,11.0233702 42.3075525,10.8083553 42.0054671,10.5303521 C41.7033817,10.2523489 41.4669705,9.91136565 41.2962266,9.5073922 C41.1254826,9.10341875 41.0401119,8.64515468 41.0401119,8.13258622 C41.0401119,7.62870536 41.1254826,7.17044128 41.2962266,6.75778023 C41.4669705,6.34511918 41.7011927,5.99327662 41.9989001,5.70224199 C42.2966074,5.41120735 42.6490352,5.18533312 43.0561938,5.0246125 C43.4633525,4.86389188 43.9033399,4.78353277 44.3761693,4.78353277 C44.8139742,4.78353277 45.2189378,4.85520441 45.591072,4.99854982 C45.9632063,5.14189524 46.2849881,5.35473827 46.5564272,5.63708531 C46.8278663,5.91943234 47.0401985,6.2712749 47.1934303,6.69262355 C47.346662,7.1139722 47.4232767,7.60698616 47.4232767,8.17168023 Z M45.8471867,7.46798806 C45.8471867,7.26817324 45.8187298,7.07704888 45.7618151,6.89460926 C45.7049005,6.71216964 45.6151518,6.55145143 45.4925664,6.41244982 C45.369981,6.2734482 45.2145626,6.16268295 45.0263064,6.08015074 C44.8380503,5.99761853 44.6169621,5.95635305 44.3630352,5.95635305 C43.8902058,5.95635305 43.4896202,6.09752444 43.1612665,6.37987148 C42.8329127,6.66221851 42.6512264,7.02492041 42.616202,7.46798806 L45.8471867,7.46798806 Z M56.4728013,4.78353277 C56.884338,4.78353277 57.2367658,4.85520441 57.5300951,4.99854982 C57.8234244,5.14189524 58.0642136,5.33084773 58.2524697,5.56541296 C58.4407259,5.79997818 58.5786324,6.06928977 58.6661934,6.37335581 C58.7537544,6.67742184 58.7975342,6.99017079 58.7975342,7.31161203 L58.7975342,11.2210129 L57.2214441,11.2210129 L57.2214441,7.75467746 C57.2214441,7.57223784 57.2083102,7.38111349 57.1820419,7.18129866 C57.1557736,6.98148384 57.0988598,6.80121882 57.0112988,6.6404982 C56.9237378,6.47977759 56.8033432,6.34729366 56.6501115,6.24304245 C56.4968797,6.13879123 56.2933035,6.08666641 56.0393766,6.08666641 C55.7942058,6.08666641 55.5840625,6.13879123 55.4089405,6.24304245 C55.2338185,6.34729366 55.0893451,6.48194945 54.9755158,6.64701387 C54.8616865,6.81207829 54.7785048,6.99668704 54.7259682,7.20084567 C54.6734316,7.40500429 54.6471637,7.60698798 54.6471637,7.80680281 L54.6471637,11.2210129 L53.0710736,11.2210129 L53.0710736,7.44192539 C53.0710736,7.05098334 52.9769469,6.72737506 52.7886908,6.47109083 C52.6004346,6.2148066 52.3049207,6.08666641 51.9021401,6.08666641 C51.6657254,6.08666641 51.4599602,6.13661937 51.2848382,6.23652678 C51.1097162,6.33643419 50.9674317,6.46457438 50.8579804,6.6209512 C50.7485292,6.77732802 50.6653475,6.95759303 50.6084328,7.16175166 C50.5515182,7.36591028 50.5230613,7.57223771 50.5230613,7.78074013 L50.5230613,11.2210129 L48.9469712,11.2210129 L48.9469712,4.96597148 L50.4442568,4.96597148 L50.4442568,5.96938438 L50.470525,5.96938438 C50.5405737,5.81300756 50.6347004,5.66532056 50.7529078,5.52631895 C50.8711151,5.38731733 51.0112106,5.26134901 51.1731984,5.14841019 C51.3351863,5.03547138 51.5212506,4.9464248 51.731397,4.8812678 C51.9415434,4.81611079 52.1735766,4.78353277 52.4275035,4.78353277 C52.9178451,4.78353277 53.3249976,4.89212616 53.6489733,5.10931618 C53.972949,5.32650621 54.2224941,5.61319274 54.3976161,5.96938438 C54.6077625,5.58712994 54.8879534,5.2939278 55.2381974,5.08976918 C55.5884414,4.88561055 55.9999719,4.78353277 56.4728013,4.78353277 Z M66.6518571,8.17168023 L66.6518571,8.38018161 C66.6518571,8.44968242 66.6474792,8.51918218 66.6387231,8.58868299 L61.8447824,8.58868299 C61.8622946,8.81456061 61.9213974,9.02088804 62.0220925,9.20767147 C62.1227877,9.39445489 62.2563162,9.55517309 62.4226821,9.68983091 C62.589048,9.82448873 62.7773013,9.93091024 62.9874477,10.0090987 C63.1975941,10.0872871 63.4164933,10.1263807 63.6441519,10.1263807 C64.0381764,10.1263807 64.3709032,10.054709 64.6423423,9.91136363 C64.9137814,9.76801821 65.1370586,9.57037825 65.3121806,9.31843782 L66.3629073,10.1524434 C65.7412242,10.986453 64.8393595,11.4034516 63.657286,11.4034516 C63.1669444,11.4034516 62.716012,11.3274363 62.3044753,11.1754033 C61.8929387,11.0233702 61.5361329,10.8083553 61.2340475,10.5303521 C60.9319621,10.2523489 60.6955509,9.91136565 60.524807,9.5073922 C60.354063,9.10341875 60.2686923,8.64515468 60.2686923,8.13258622 C60.2686923,7.62870536 60.354063,7.17044128 60.524807,6.75778023 C60.6955509,6.34511918 60.9297731,5.99327662 61.2274805,5.70224199 C61.5251879,5.41120735 61.8776156,5.18533312 62.2847742,5.0246125 C62.6919329,4.86389188 63.1319203,4.78353277 63.6047497,4.78353277 C64.0425546,4.78353277 64.4475182,4.85520441 64.8196524,4.99854982 C65.1917867,5.14189524 65.5135685,5.35473827 65.7850076,5.63708531 C66.0564467,5.91943234 66.2687789,6.2712749 66.4220107,6.69262355 C66.5752424,7.1139722 66.6518571,7.60698616 66.6518571,8.17168023 Z M65.0757671,7.46798806 C65.0757671,7.26817324 65.0473102,7.07704888 64.9903955,6.89460926 C64.9334809,6.71216964 64.8437322,6.55145143 64.7211468,6.41244982 C64.5985614,6.2734482 64.443143,6.16268295 64.2548868,6.08015074 C64.0666307,5.99761853 63.8455425,5.95635305 63.5916156,5.95635305 C63.1187862,5.95635305 62.7182006,6.09752444 62.3898469,6.37987148 C62.0614931,6.66221851 61.8798068,7.02492041 61.8447824,7.46798806 L65.0757671,7.46798806 Z M74.1909621,8.17168023 L74.1909621,8.38018161 C74.1909621,8.44968242 74.1865841,8.51918218 74.177828,8.58868299 L69.3838873,8.58868299 C69.4013995,8.81456061 69.4605023,9.02088804 69.5611975,9.20767147 C69.6618926,9.39445489 69.7954211,9.55517309 69.961787,9.68983091 C70.1281529,9.82448873 70.3164062,9.93091024 70.5265526,10.0090987 C70.736699,10.0872871 70.9555982,10.1263807 71.1832568,10.1263807 C71.5772813,10.1263807 71.9100081,10.054709 72.1814472,9.91136363 C72.4528863,9.76801821 72.6761635,9.57037825 72.8512855,9.31843782 L73.9020122,10.1524434 C73.2803291,10.986453 72.3784644,11.4034516 71.1963909,11.4034516 C70.7060493,11.4034516 70.255117,11.3274363 69.8435803,11.1754033 C69.4320436,11.0233702 69.0752379,10.8083553 68.7731524,10.5303521 C68.471067,10.2523489 68.2346558,9.91136565 68.0639119,9.5073922 C67.893168,9.10341875 67.8077973,8.64515468 67.8077973,8.13258622 C67.8077973,7.62870536 67.893168,7.17044128 68.0639119,6.75778023 C68.2346558,6.34511918 68.468878,5.99327662 68.7665854,5.70224199 C69.0642928,5.41120735 69.4167205,5.18533312 69.8238792,5.0246125 C70.2310378,4.86389188 70.6710252,4.78353277 71.1438546,4.78353277 C71.5816596,4.78353277 71.9866231,4.85520441 72.3587574,4.99854982 C72.7308916,5.14189524 73.0526734,5.35473827 73.3241125,5.63708531 C73.5955516,5.91943234 73.8078839,6.2712749 73.9611156,6.69262355 C74.1143474,7.1139722 74.1909621,7.60698616 74.1909621,8.17168023 Z M72.614872,7.46798806 C72.614872,7.26817324 72.5864151,7.07704888 72.5295005,6.89460926 C72.4725858,6.71216964 72.3828371,6.55145143 72.2602517,6.41244982 C72.1376663,6.2734482 71.9822479,6.16268295 71.7939917,6.08015074 C71.6057356,5.99761853 71.3846474,5.95635305 71.1307205,5.95635305 C70.6578911,5.95635305 70.2573056,6.09752444 69.9289518,6.37987148 C69.6005981,6.66221851 69.4189117,7.02492041 69.3838873,7.46798806 L72.614872,7.46798806 Z M75.7146565,4.96597148 L77.2119421,4.96597148 L77.2119421,5.96938438 L77.2382103,5.96938438 C77.3783079,5.65663075 77.621286,5.38080355 77.9671519,5.14189452 C78.3130179,4.9029855 78.7223594,4.78353277 79.1951888,4.78353277 C79.6067255,4.78353277 79.9591532,4.85520441 80.2524826,4.99854982 C80.5458119,5.14189524 80.786601,5.33084773 80.9748572,5.56541296 C81.1631133,5.79997818 81.3010198,6.06928977 81.3885808,6.37335581 C81.4761418,6.67742184 81.5199217,6.99017079 81.5199217,7.31161203 L81.5199217,11.2210129 L79.9438316,11.2210129 L79.9438316,7.75467746 C79.9438316,7.57223784 79.9306976,7.38111349 79.9044293,7.18129866 C79.878161,6.98148384 79.8212472,6.80121882 79.7336862,6.6404982 C79.6461252,6.47977759 79.5257307,6.34729366 79.3724989,6.24304245 C79.2192672,6.13879123 79.0156909,6.08666641 78.761764,6.08666641 C78.5078371,6.08666641 78.2889379,6.13661937 78.1050598,6.23652678 C77.9211817,6.33643419 77.7701413,6.46457438 77.6519339,6.6209512 C77.5337266,6.77732802 77.4439779,6.95759303 77.3826852,7.16175166 C77.3213925,7.36591028 77.2907466,7.57223771 77.2907466,7.78074013 L77.2907466,11.2210129 L75.7146565,11.2210129 L75.7146565,4.96597148 Z M82.4525823,6.21697977 L82.4525823,4.96597148 L83.5558454,4.96597148 L83.5558454,3.15461573 L85.1056673,3.15461573 L85.1056673,4.96597148 L86.6817574,4.96597148 L86.6817574,6.21697977 L85.1056673,6.21697977 L85.1056673,9.12296778 C85.1056673,9.40097101 85.1560141,9.63118898 85.2567093,9.81362861 C85.3574044,9.99606823 85.5828706,10.0872867 85.9331146,10.0872867 C86.0381878,10.0872867 86.1520154,10.0764273 86.2746008,10.0547083 C86.3971862,10.0329893 86.5066358,10.0004113 86.6029529,9.95697331 L86.6554892,11.1819189 C86.5153916,11.2340445 86.3490282,11.27531 86.156394,11.3057166 C85.9637598,11.3361232 85.7798845,11.3513263 85.6047625,11.3513263 C85.1844697,11.3513263 84.8429869,11.2926859 84.580304,11.1754033 C84.317621,11.0581206 84.1096667,10.8974024 83.956435,10.6932438 C83.8032032,10.4890852 83.6981316,10.2545235 83.6412169,9.98955165 C83.5843023,9.72457982 83.5558454,9.44006515 83.5558454,9.13599912 L83.5558454,6.21697977 L82.4525823,6.21697977 Z M93.8399739,8.17168023 L93.8399739,8.38018161 C93.8399739,8.44968242 93.8355959,8.51918218 93.8268398,8.58868299 L89.0328991,8.58868299 C89.0504113,8.81456061 89.1095141,9.02088804 89.2102093,9.20767147 C89.3109044,9.39445489 89.4444329,9.55517309 89.6107988,9.68983091 C89.7771647,9.82448873 89.9654181,9.93091024 90.1755645,10.0090987 C90.3857108,10.0872871 90.6046101,10.1263807 90.8322687,10.1263807 C91.2262931,10.1263807 91.5590199,10.054709 91.830459,9.91136363 C92.1018981,9.76801821 92.3251753,9.57037825 92.5002973,9.31843782 L93.551024,10.1524434 C92.929341,10.986453 92.0274762,11.4034516 90.8454027,11.4034516 C90.3550612,11.4034516 89.9041288,11.3274363 89.4925921,11.1754033 C89.0810554,11.0233702 88.7242497,10.8083553 88.4221642,10.5303521 C88.1200788,10.2523489 87.8836677,9.91136565 87.7129237,9.5073922 C87.5421798,9.10341875 87.4568091,8.64515468 87.4568091,8.13258622 C87.4568091,7.62870536 87.5421798,7.17044128 87.7129237,6.75778023 C87.8836677,6.34511918 88.1178898,5.99327662 88.4155972,5.70224199 C88.7133046,5.41120735 89.0657323,5.18533312 89.472891,5.0246125 C89.8800496,4.86389188 90.320037,4.78353277 90.7928664,4.78353277 C91.2306714,4.78353277 91.6356349,4.85520441 92.0077692,4.99854982 C92.3799034,5.14189524 92.7016853,5.35473827 92.9731243,5.63708531 C93.2445634,5.91943234 93.4568957,6.2712749 93.6101274,6.69262355 C93.7633592,7.1139722 93.8399739,7.60698616 93.8399739,8.17168023 Z M92.2638838,7.46798806 C92.2638838,7.26817324 92.2354269,7.07704888 92.1785123,6.89460926 C92.1215976,6.71216964 92.0318489,6.55145143 91.9092635,6.41244982 C91.7866781,6.2734482 91.6312597,6.16268295 91.4430036,6.08015074 C91.2547474,5.99761853 91.0336592,5.95635305 90.7797323,5.95635305 C90.3069029,5.95635305 89.9063174,6.09752444 89.5779636,6.37987148 C89.2496099,6.66221851 89.0679235,7.02492041 89.0328991,7.46798806 L92.2638838,7.46798806 Z M36.3511032,20.7338885 L34.9194881,16.9808636 L33.4616047,20.7338885 L36.3511032,20.7338885 Z M34.2496498,15.0261631 L35.6812649,15.0261631 L39.6871606,24.2523493 L37.7958525,24.2523493 L36.9290029,22.1412728 L32.8968391,22.1412728 L32.0562578,24.2523493 L30.2043519,24.2523493 L34.2496498,15.0261631 Z M48.0537128,17.8148691 C48.4652495,17.8148691 48.8176772,17.8865408 49.1110065,18.0298862 C49.4043359,18.1732316 49.645125,18.3621841 49.8333812,18.5967493 C50.0216373,18.8313145 50.1595438,19.1006261 50.2471048,19.4046922 C50.3346658,19.7087582 50.3784456,20.0215071 50.3784456,20.3429484 L50.3784456,24.2523493 L48.8023556,24.2523493 L48.8023556,20.7860138 C48.8023556,20.6035742 48.7892216,20.4124498 48.7629533,20.212635 C48.736685,20.0128202 48.6797712,19.8325552 48.5922102,19.6718346 C48.5046492,19.5111139 48.3842547,19.37863 48.2310229,19.2743788 C48.0777912,19.1701276 47.8742149,19.1180028 47.620288,19.1180028 C47.3751172,19.1180028 47.164974,19.1701276 46.989852,19.2743788 C46.81473,19.37863 46.6702565,19.5132858 46.5564272,19.6783502 C46.4425979,19.8434146 46.3594162,20.0280234 46.3068796,20.232182 C46.254343,20.4363406 46.2280751,20.6383243 46.2280751,20.8381392 L46.2280751,24.2523493 L44.651985,24.2523493 L44.651985,20.4732617 C44.651985,20.0823197 44.5578584,19.7587114 44.3696022,19.5024272 C44.1813461,19.246143 43.8858321,19.1180028 43.4830515,19.1180028 C43.2466369,19.1180028 43.0408716,19.1679557 42.8657496,19.2678631 C42.6906276,19.3677705 42.5483431,19.4959107 42.4388919,19.6522876 C42.3294406,19.8086644 42.2462589,19.9889294 42.1893443,20.193088 C42.1324296,20.3972466 42.1039727,20.6035741 42.1039727,20.8120765 L42.1039727,24.2523493 L40.5278827,24.2523493 L40.5278827,17.9973078 L42.0251682,17.9973078 L42.0251682,19.0007207 L42.0514364,19.0007207 C42.1214852,18.8443439 42.2156119,18.6966569 42.3338192,18.5576553 C42.4520265,18.4186537 42.592122,18.2926854 42.7541099,18.1797465 C42.9160977,18.0668077 43.1021621,17.9777612 43.3123085,17.9126041 C43.5224548,17.8474471 43.754488,17.8148691 44.0084149,17.8148691 C44.4987565,17.8148691 44.905909,17.9234625 45.2298847,18.1406525 C45.5538604,18.3578426 45.8034055,18.6445291 45.9785275,19.0007207 C46.1886739,18.6184663 46.4688649,18.3252642 46.8191089,18.1211055 C47.1693529,17.9169469 47.5808834,17.8148691 48.0537128,17.8148691 Z M55.6716222,19.6653189 C55.5315246,19.4828793 55.3388933,19.3243329 55.0937225,19.1896751 C54.8485517,19.0550173 54.5814947,18.9876894 54.2925434,18.9876894 C54.0386165,18.9876894 53.8065833,19.0398142 53.5964369,19.1440654 C53.3862905,19.2483166 53.2812189,19.4220661 53.2812189,19.6653189 C53.2812189,19.9085717 53.3972355,20.0801493 53.6292721,20.1800567 C53.8613088,20.2799641 54.2006026,20.3820419 54.6471637,20.4862931 C54.8835784,20.5384187 55.1221785,20.6079184 55.3629712,20.6947945 C55.603764,20.7816705 55.8226632,20.8967795 56.0196754,21.0401249 C56.2166877,21.1834703 56.3764841,21.3615634 56.4990695,21.5744097 C56.6216549,21.7872559 56.6829467,22.0457081 56.6829467,22.3497742 C56.6829467,22.7320286 56.6107099,23.0556369 56.4662343,23.3206087 C56.3217586,23.5855806 56.1291273,23.8005955 55.8883346,23.9656599 C55.6475419,24.1307243 55.3673509,24.250177 55.0477532,24.3240216 C54.7281556,24.3978662 54.3976178,24.434788 54.0561299,24.434788 C53.5657883,24.434788 53.088588,24.3457414 52.6245147,24.1676456 C52.1604414,23.9895498 51.7751788,23.7354413 51.4687153,23.4053124 L52.506308,22.4409935 C52.68143,22.6668712 52.9090851,22.8536518 53.1892803,23.001341 C53.4694755,23.1490302 53.7803124,23.2228737 54.1218003,23.2228737 C54.2356296,23.2228737 54.3516462,23.2098425 54.4698535,23.1837797 C54.5880609,23.1577169 54.6975105,23.1164514 54.7982056,23.059982 C54.8989008,23.0035126 54.9798935,22.9274972 55.0411862,22.8319336 C55.1024789,22.73637 55.1331248,22.6190892 55.1331248,22.4800875 C55.1331248,22.2194595 55.0127302,22.0326789 54.7719375,21.9197401 C54.5311447,21.8068013 54.169961,21.6938641 53.6883755,21.5809253 C53.4519608,21.5287997 53.2221167,21.4614718 52.9988361,21.3789396 C52.7755556,21.2964074 52.5763573,21.187814 52.4012353,21.0531562 C52.2261133,20.9184984 52.0860178,20.7512646 51.9809446,20.5514498 C51.8758714,20.3516349 51.8233356,20.104042 51.8233356,19.8086636 C51.8233356,19.4611595 51.8955723,19.1614418 52.040048,18.9095014 C52.1845236,18.6575609 52.3749659,18.4512335 52.6113806,18.2905129 C52.8477953,18.1297923 53.1148524,18.0103396 53.4125598,17.9321512 C53.7102672,17.8539627 54.0167261,17.8148691 54.3319456,17.8148691 C54.7872628,17.8148691 55.2316282,17.8930564 55.6650552,18.0494332 C56.0984821,18.20581 56.4421539,18.4447154 56.6960808,18.7661567 L55.6716222,19.6653189 Z M57.1427803,19.2483161 L57.1427803,17.9973078 L58.2460434,17.9973078 L58.2460434,16.1859521 L59.7958653,16.1859521 L59.7958653,17.9973078 L61.3719554,17.9973078 L61.3719554,19.2483161 L59.7958653,19.2483161 L59.7958653,22.1543041 C59.7958653,22.4323074 59.8462121,22.6625253 59.9469073,22.844965 C60.0476024,23.0274046 60.2730686,23.118623 60.6233126,23.118623 C60.7283858,23.118623 60.8422134,23.1077637 60.9647988,23.0860447 C61.0873842,23.0643257 61.1968338,23.0317477 61.2931509,22.9883097 L61.3456872,24.2132553 C61.2055896,24.2653809 61.0392262,24.3066464 60.846592,24.337053 C60.6539578,24.3674596 60.4700825,24.3826626 60.2949605,24.3826626 C59.8746677,24.3826626 59.5331849,24.3240222 59.2705019,24.2067396 C59.007819,24.089457 58.7998647,23.9287388 58.646633,23.7245802 C58.4934012,23.5204215 58.3883296,23.2858598 58.3314149,23.020888 C58.2745003,22.7559162 58.2460434,22.4714015 58.2460434,22.1673355 L58.2460434,19.2483161 L57.1427803,19.2483161 Z M68.5301719,21.2030166 L68.5301719,21.411518 C68.5301719,21.4810188 68.5257939,21.5505185 68.5170378,21.6200193 L63.7230971,21.6200193 C63.7406093,21.845897 63.7997121,22.0522244 63.9004073,22.2390078 C64.0011024,22.4257912 64.1346309,22.5865094 64.3009968,22.7211673 C64.4673627,22.8558251 64.6556161,22.9622466 64.8657624,23.040435 C65.0759088,23.1186234 65.2948081,23.157717 65.5224666,23.157717 C65.9164911,23.157717 66.2492179,23.0860454 66.520657,22.9427 C66.7920961,22.7993546 67.0153733,22.6017146 67.1904953,22.3497742 L68.241222,23.1837797 C67.6195389,24.0177894 66.7176742,24.434788 65.5356007,24.434788 C65.0452591,24.434788 64.5943268,24.3587726 64.1827901,24.2067396 C63.7712534,24.0547066 63.4144477,23.8396917 63.1123622,23.5616885 C62.8102768,23.2836852 62.5738656,22.942702 62.4031217,22.5387286 C62.2323778,22.1347551 62.1470071,21.676491 62.1470071,21.1639226 C62.1470071,20.6600417 62.2323778,20.2017776 62.4031217,19.7891166 C62.5738656,19.3764555 62.8080878,19.024613 63.1057952,18.7335783 C63.4035026,18.4425437 63.7559303,18.2166695 64.163089,18.0559488 C64.5702476,17.8952282 65.010235,17.8148691 65.4830644,17.8148691 C65.9208694,17.8148691 66.3258329,17.8865408 66.6979672,18.0298862 C67.0701014,18.1732316 67.3918832,18.3860746 67.6633223,18.6684217 C67.9347614,18.9507687 68.1470937,19.3026113 68.3003254,19.7239599 C68.4535572,20.1453085 68.5301719,20.6383225 68.5301719,21.2030166 Z M66.9540818,20.4993244 C66.9540818,20.2995096 66.9256249,20.1083852 66.8687103,19.9259456 C66.8117956,19.743506 66.7220469,19.5827878 66.5994615,19.4437862 C66.4768761,19.3047846 66.3214577,19.1940193 66.1332015,19.1114871 C65.9449454,19.0289549 65.7238572,18.9876894 65.4699303,18.9876894 C64.9971009,18.9876894 64.5965154,19.1288608 64.2681616,19.4112078 C63.9398079,19.6935549 63.7581215,20.0562568 63.7230971,20.4993244 L66.9540818,20.4993244 Z M70.0538663,17.9973078 L71.564286,17.9973078 L71.564286,19.0398147 L71.5905542,19.0398147 C71.7656762,18.6749355 72.0108433,18.3795615 72.3260629,18.1536839 C72.6412825,17.9278062 73.0090331,17.8148691 73.4293259,17.8148691 C73.4906186,17.8148691 73.5562884,17.817041 73.6263372,17.8213848 C73.696386,17.8257286 73.7576778,17.8365879 73.8102144,17.8539631 L73.8102144,19.2874101 C73.7051412,19.2613473 73.6153925,19.2439724 73.5409656,19.2352848 C73.4665388,19.2265972 73.3943021,19.2222535 73.3242533,19.2222535 C72.9652532,19.2222535 72.6763062,19.2874095 72.4574037,19.4177235 C72.2385012,19.5480375 72.0677598,19.704412 71.9451744,19.8868516 C71.822589,20.0692912 71.7394073,20.2560718 71.6956268,20.4471991 C71.6518463,20.6383263 71.6299564,20.790357 71.6299564,20.9032958 L71.6299564,24.2523493 L70.0538663,24.2523493 L70.0538663,17.9973078 Z M75.8198699,21.0987659 C75.8198699,21.3420187 75.8570828,21.5852679 75.9315096,21.8285207 C76.0059365,22.0717735 76.1175751,22.2889603 76.2664288,22.4800875 C76.4152825,22.6712148 76.6035358,22.8275892 76.8311944,22.9492156 C77.058853,23.0708421 77.32591,23.1316544 77.6323735,23.1316544 C77.9213248,23.1316544 78.1796259,23.0730139 78.4072845,22.9557313 C78.6349431,22.8384487 78.8297634,22.6842461 78.9917512,22.4931189 C79.1537391,22.3019917 79.2763226,22.0869768 79.3595056,21.8480677 C79.4426885,21.6091587 79.4842794,21.3680814 79.4842794,21.1248286 C79.4842794,20.8815757 79.4426885,20.6383266 79.3595056,20.3950737 C79.2763226,20.1518209 79.1537391,19.9346341 78.9917512,19.7435069 C78.8297634,19.5523797 78.6349431,19.3960052 78.4072845,19.2743788 C78.1796259,19.1527524 77.9213248,19.0919401 77.6323735,19.0919401 C77.32591,19.0919401 77.058853,19.1505805 76.8311944,19.2678631 C76.6035358,19.3851457 76.4152825,19.5393483 76.2664288,19.7304756 C76.1175751,19.9216028 76.0059365,20.1366177 75.9315096,20.3755267 C75.8570828,20.6144357 75.8198699,20.8555131 75.8198699,21.0987659 Z M81.0078331,24.2523493 L79.5105475,24.2523493 L79.5105475,23.3140931 L79.4842794,23.3140931 C79.2653769,23.6789723 78.961107,23.9569714 78.5714605,24.1480986 C78.1818141,24.3392258 77.7637166,24.434788 77.3171555,24.434788 C76.83557,24.434788 76.4043386,24.3457414 76.0234482,24.1676456 C75.6425579,23.9895498 75.3185871,23.7506443 75.051526,23.4509221 C74.784465,23.1511999 74.5786997,22.7993573 74.4342241,22.3953839 C74.2897484,21.9914104 74.2175117,21.5592087 74.2175117,21.0987659 C74.2175117,20.638323 74.2919374,20.2082932 74.4407911,19.8086636 C74.5896448,19.4090339 74.7997881,19.0615351 75.0712271,18.7661567 C75.3426662,18.4707782 75.6666371,18.2383884 76.0431494,18.0689802 C76.4196617,17.899572 76.8311922,17.8148691 77.2777533,17.8148691 C77.5667046,17.8148691 77.8250056,17.8474471 78.0526642,17.9126041 C78.2803228,17.9777612 78.4795211,18.0581203 78.650265,18.1536839 C78.821009,18.2492475 78.9676715,18.3534971 79.0902568,18.4664359 C79.2128422,18.5793748 79.3135359,18.6879681 79.3923408,18.7922194 L79.431743,18.7922194 L79.431743,14.400659 L81.0078331,14.400659 L81.0078331,24.2523493 Z M86.813239,21.3984866 L86.4586187,21.3984866 C86.2046918,21.3984866 85.9376348,21.409346 85.6574396,21.431065 C85.3772444,21.452784 85.1189433,21.5005651 84.8825286,21.5744097 C84.6461139,21.6482543 84.4491046,21.7525039 84.2914948,21.8871617 C84.133885,22.0218196 84.0550813,22.2064283 84.0550813,22.4409935 C84.0550813,22.5886827 84.0879162,22.7124792 84.1535869,22.8123866 C84.2192577,22.912294 84.3046284,22.9926531 84.4097016,23.0534663 C84.5147748,23.1142795 84.6329804,23.1577169 84.7643219,23.1837797 C84.8956633,23.2098425 85.0270029,23.2228737 85.1583444,23.2228737 C85.7012226,23.2228737 86.1127531,23.0795304 86.3929483,22.7928396 C86.6731435,22.5061488 86.813239,22.1152126 86.813239,21.6200193 L86.813239,21.3984866 Z M86.8395071,23.4574378 L86.8001049,23.4574378 C86.6424951,23.735441 86.388572,23.9634871 86.038328,24.1415829 C85.688084,24.3196787 85.2896874,24.4087253 84.8431264,24.4087253 C84.5891995,24.4087253 84.3243314,24.3761473 84.0485143,24.3109903 C83.7726971,24.2458333 83.518774,24.1372399 83.2867374,23.9852069 C83.0547008,23.8331739 82.8620695,23.633362 82.7088377,23.3857654 C82.555606,23.1381688 82.4789912,22.8319354 82.4789912,22.4670562 C82.4789912,21.9979257 82.6125198,21.6243645 82.8795808,21.3463613 C83.1466418,21.068358 83.4903136,20.855515 83.9106064,20.7078258 C84.3308992,20.5601366 84.7971545,20.4624025 85.3093863,20.4146207 C85.8216182,20.3668389 86.3228974,20.3429484 86.813239,20.3429484 L86.813239,20.1865723 C86.813239,19.7956303 86.6709545,19.5067719 86.3863812,19.3199885 C86.101808,19.1332051 85.7625142,19.0398147 85.3684897,19.0398147 C85.0357579,19.0398147 84.7161651,19.1093145 84.4097016,19.2483161 C84.1032381,19.3873177 83.849315,19.5567234 83.6479247,19.7565382 L82.8336115,18.8052507 C83.1926116,18.4751218 83.6063311,18.2275289 84.0747824,18.0624645 C84.5432338,17.8974001 85.0182451,17.8148691 85.4998306,17.8148691 C86.0602209,17.8148691 86.5220983,17.8930564 86.8854764,18.0494332 C87.2488546,18.20581 87.5356125,18.4099656 87.7457589,18.661906 C87.9559053,18.9138464 88.1025678,19.1961892 88.1857507,19.5089429 C88.2689337,19.8216965 88.3105245,20.1344454 88.3105245,20.4471991 L88.3105245,24.2523493 L86.8395071,24.2523493 L86.8395071,23.4574378 Z M97.6752671,17.8148691 C98.0868038,17.8148691 98.4392316,17.8865408 98.7325609,18.0298862 C99.0258902,18.1732316 99.2666794,18.3621841 99.4549355,18.5967493 C99.6431917,18.8313145 99.7810982,19.1006261 99.8686592,19.4046922 C99.9562202,19.7087582 100,20.0215071 100,20.3429484 L100,24.2523493 L98.4239099,24.2523493 L98.4239099,20.7860138 C98.4239099,20.6035742 98.410776,20.4124498 98.3845077,20.212635 C98.3582394,20.0128202 98.3013256,19.8325552 98.2137646,19.6718346 C98.1262036,19.5111139 98.005809,19.37863 97.8525773,19.2743788 C97.6993455,19.1701276 97.4957693,19.1180028 97.2418424,19.1180028 C96.9966716,19.1180028 96.7865283,19.1701276 96.6114063,19.2743788 C96.4362843,19.37863 96.2918109,19.5132858 96.1779816,19.6783502 C96.0641523,19.8434146 95.9809706,20.0280234 95.928434,20.232182 C95.8758974,20.4363406 95.8496295,20.6383243 95.8496295,20.8381392 L95.8496295,24.2523493 L94.2735394,24.2523493 L94.2735394,20.4732617 C94.2735394,20.0823197 94.1794127,19.7587114 93.9911566,19.5024272 C93.8029004,19.246143 93.5073865,19.1180028 93.1046059,19.1180028 C92.8681912,19.1180028 92.662426,19.1679557 92.487304,19.2678631 C92.312182,19.3677705 92.1698975,19.4959107 92.0604462,19.6522876 C91.950995,19.8086644 91.8678133,19.9889294 91.8108986,20.193088 C91.753984,20.3972466 91.7255271,20.6035741 91.7255271,20.8120765 L91.7255271,24.2523493 L90.149437,24.2523493 L90.149437,17.9973078 L91.6467226,17.9973078 L91.6467226,19.0007207 L91.6729908,19.0007207 C91.7430396,18.8443439 91.8371662,18.6966569 91.9553736,18.5576553 C92.0735809,18.4186537 92.2136764,18.2926854 92.3756642,18.1797465 C92.5376521,18.0668077 92.7237164,17.9777612 92.9338628,17.9126041 C93.1440092,17.8474471 93.3760424,17.8148691 93.6299693,17.8148691 C94.1203109,17.8148691 94.5274634,17.9234625 94.8514391,18.1406525 C95.1754148,18.3578426 95.4249599,18.6445291 95.6000819,19.0007207 C95.8102283,18.6184663 96.0904192,18.3252642 96.4406632,18.1211055 C96.7909072,17.9169469 97.2024377,17.8148691 97.6752671,17.8148691 Z M0,64.0021165 L5.9255962,58.0052913 L0,52.0084661 L3.95039747,48.0105826 L9.87599367,54.0074078 L15.8015899,48.0105826 L19.7519873,52.0084661 L13.8263911,58.0052913 L19.7519873,64.0021165 L15.8015899,68 L9.87599367,62.0031748 L3.95039747,68 L0,64.0021165 Z M0,15.9915339 L5.9255962,9.99470868 L0,3.99788347 L3.95039747,0 L9.87599367,5.99682521 L15.8015899,0 L19.7519873,3.99788347 L13.8263911,9.99470868 L19.7519873,15.9915339 L15.8015899,19.9894174 L9.87599367,13.9925922 L3.95039747,19.9894174 L0,15.9915339 Z M0,40.0168146 L5.9255962,34.0199894 L0,28.0231642 L3.95039747,24.0252807 L9.87599367,30.0221059 L15.8015899,24.0252807 L19.7519873,28.0231642 L13.8263911,34.0199894 L19.7519873,40.0168146 L15.8015899,44.0146981 L9.87599367,38.0178729 L3.95039747,44.0146981 L0,40.0168146 Z" id="gemeenteamsterdam" fill="#EC0000" fill-rule="nonzero"></path>
    </g>
</svg>