<?xml version="1.0" encoding="UTF-8"?>
<svg viewBox="0 0 1024 1024" version="1.1" xmlns="http://www.w3.org/2000/svg" xmlns:xlink="http://www.w3.org/1999/xlink">
        <path d="M414.654206,400.093458 L414.654206,849.140187 L552.82243,849.140187 L552.82243,626.186916 C552.82243,566.523364 565.383178,510 637.607477,510 C709.831776,510 709.831776,575.943925 709.831776,629.327103 L709.831776,849.140187 L848,849.140187 L848,604.205607 C848,481.738318 822.878505,390.672897 681.570093,390.672897 C612.485981,390.672897 568.523364,428.35514 549.682243,462.897196 L546.542056,462.897196 L546.542056,400.093458 L414.654206,400.093458 Z M185.420561,400.093458 L323.588785,400.093458 L323.588785,849.140187 L185.420561,849.140187 L185.420561,400.093458 Z M257.64486,337.28972 C212.553649,337.28972 176,300.736071 176,255.64486 C176,210.553649 212.553649,174 257.64486,174 C302.736071,174 339.28972,210.553649 339.28972,255.64486 C339.28972,300.736071 302.736071,337.28972 257.64486,337.28972 Z" id="path-1"></path>
</svg>