<?xml version="1.0" encoding="UTF-8"?>
<svg width="84px" height="67px" viewBox="0 0 84 67" version="1.1" xmlns="http://www.w3.org/2000/svg" xmlns:xlink="http://www.w3.org/1999/xlink">
    <!-- Generator: Sketch 42 (36781) - http://www.bohemiancoding.com/sketch -->
    <title>logo</title>
    <desc>Created with Sketch.</desc>
    <defs>
        <polygon id="path-1" points="7.30330027 0.13445481 0.231438069 0.13445481 0.231438069 8.09339572 7.30330027 8.09339572 7.30330027 0.13445481"></polygon>
        <polygon id="path-3" points="0.209269409 5.42642729 4.38606001 5.42642729 4.38606001 0.0350306029 0.209269409 0.0350306029 0.209269409 5.42642729"></polygon>
        <polygon id="path-5" points="0.317053662 6.91328008 4.03852031 6.91328008 4.03852031 0.163045701 0.317053662 0.163045701 0.317053662 6.91328008"></polygon>
        <polygon id="path-7" points="0.000298768999 5.42642729 5.15286892 5.42642729 5.15286892 0.0350306029 0.000298768999 0.0350306029 0.000298768999 5.42642729"></polygon>
        <polygon id="path-9" points="0.171624516 5.42642729 4.83660366 5.42642729 4.83660366 0.034668841 0.171624516 0.034668841 0.171624516 5.42642729"></polygon>
        <polygon id="path-11" points="8.06318934 5.29782097 8.06318934 0.0347894283 0.175568266 0.0347894283 0.175568266 5.29782097 8.06318934 5.29782097"></polygon>
        <polygon id="path-13" points="19.1829206 0.46554158 0.00061978355 0.46554158 0.00061978355 19.9652621 19.1829206 19.9652621 19.1829206 0.46554158"></polygon>
    </defs>
    <g id="Dataportaal" stroke="none" stroke-width="1" fill="none" fill-rule="evenodd">
        <g id="Homepage" transform="translate(-15.000000, -21.000000)">
            <g id="header-home" transform="translate(0.000000, 20.000000)">
                <g id="logo" transform="translate(15.000000, 0.000000)">
                    <g id="gemeente" transform="translate(27.000000, 1.615385)">
                        <g id="Group-3" transform="translate(0.388690, 0.146646)">
                            <mask id="mask-2" fill="white">
                                <use xlink:href="#path-1"></use>
                            </mask>
                            <g id="Clip-2"></g>
                            <path d="M4.19670022,8.09339572 C5.35233871,8.09339572 6.39145729,7.83654483 7.30330027,7.34454875 L7.30330027,3.47188848 L4.42974004,3.47188848 L4.42974004,4.69162874 L5.96720531,4.69162874 L5.96720531,6.4781292 C5.50052813,6.74523001 4.88566153,6.87365545 4.20745591,6.87365545 C2.65923495,6.87365545 1.63087206,5.67562089 1.63087206,4.06035437 C1.63087206,2.55180758 2.65923495,1.35377302 4.20745591,1.35377302 C4.95975624,1.35377302 5.69174029,1.62147677 6.16857561,2.09176713 L7.15451331,1.08667221 C6.36994592,0.380633728 5.34158302,0.134032754 4.19670022,0.134032754 C1.88542325,0.134032754 0.231438069,1.71734365 0.231438069,4.14597133 C0.231438069,6.51008482 1.88542325,8.09339572 4.19670022,8.09339572" id="Fill-1" fill="#EC0000" mask="url(#mask-2)"></path>
                        </g>
                        <path d="M11.4873124,3.74702005 C12.2826355,3.74702005 12.7702265,4.21791335 12.7809821,4.96676031 L10.1727288,4.96676031 C10.2683349,4.22816327 10.7344145,3.74702005 11.4873124,3.74702005 M11.6677689,8.17558765 C12.4732501,8.17558765 13.226148,7.88678113 13.8195032,7.14878702 L12.9082577,6.45360139 C12.58977,6.84912765 12.1762737,7.14878702 11.5404933,7.14878702 C10.8300206,7.14878702 10.2575792,6.68874658 10.1727288,5.92904675 L14.0531405,5.92904675 L14.0531405,5.57632898 C14.0531405,3.78982853 13.0881167,2.78413067 11.6677689,2.78413067 C10.1303036,2.78413067 8.90057039,3.86459264 8.90057039,5.47985916 C8.90057039,7.09512569 10.1303036,8.17558765 11.6677689,8.17558765" id="Fill-4" fill="#EC0000"></path>
                        <path d="M23.0751875,8.04746368 L23.0751875,4.98816456 C23.0751875,3.75757143 22.5983522,2.78443214 21.2413434,2.78443214 C20.4776898,2.78443214 19.9369179,3.08348858 19.5658468,3.73646866 C19.3011375,3.09434143 18.7603656,2.78443214 17.9757982,2.78443214 C17.1272943,2.78443214 16.6397033,3.23361973 16.4174191,3.71476295 L16.3959078,3.71476295 L16.3959078,2.91285758 L15.1870884,2.91285758 L15.1870884,8.04746368 L16.4598443,8.04746368 L16.4598443,5.24441251 C16.4598443,4.56007974 16.7884902,3.93965822 17.625641,3.93965822 C18.2405076,3.93965822 18.4950588,4.35689018 18.4950588,4.98816456 L18.4950588,8.04746368 L19.7672172,8.04746368 L19.7672172,5.26611822 C19.7672172,4.60288822 20.0641935,3.93965822 20.8595166,3.93965822 C21.6124145,3.93965822 21.8030291,4.49556555 21.8030291,5.13769277 L21.8030291,8.04746368 L23.0751875,8.04746368 Z" id="Fill-6" fill="#EC0000"></path>
                        <path d="M26.7965346,3.74702005 C27.5918577,3.74702005 28.0794487,4.21791335 28.0902044,4.96676031 L25.4819511,4.96676031 C25.5775571,4.22816327 26.0436368,3.74702005 26.7965346,3.74702005 M26.9769911,8.17558765 C27.7824723,8.17558765 28.5353702,7.88678113 29.1287255,7.14878702 L28.2168825,6.45360139 C27.8989923,6.84912765 27.485496,7.14878702 26.8497155,7.14878702 C26.1392429,7.14878702 25.5668014,6.68874658 25.4819511,5.92904675 L29.3623628,5.92904675 L29.3623628,5.57632898 C29.3623628,3.78982853 28.3973389,2.78413067 26.9769911,2.78413067 C25.4395259,2.78413067 24.2097927,3.86459264 24.2097927,5.47985916 C24.2097927,7.09512569 25.4395259,8.17558765 26.9769911,8.17558765" id="Fill-8" fill="#EC0000"></path>
                        <path d="M32.8819214,3.74702005 C33.6772444,3.74702005 34.1648355,4.21791335 34.1755911,4.96676031 L31.5673378,4.96676031 C31.6629439,4.22816327 32.1290235,3.74702005 32.8819214,3.74702005 M33.0623778,8.17558765 C33.8678591,8.17558765 34.6207569,7.88678113 35.2141122,7.14878702 L34.3028667,6.45360139 C33.984379,6.84912765 33.5708827,7.14878702 32.9351023,7.14878702 C32.2246296,7.14878702 31.6521882,6.68874658 31.5673378,5.92904675 L35.4477495,5.92904675 L35.4477495,5.57632898 C35.4477495,3.78982853 34.4827257,2.78413067 33.0623778,2.78413067 C31.5249126,2.78413067 30.2951794,3.86459264 30.2951794,5.47985916 C30.2951794,7.09512569 31.5249126,8.17558765 33.0623778,8.17558765" id="Fill-10" fill="#EC0000"></path>
                        <path d="M37.9073354,5.24471398 C37.9073354,4.55977827 38.2359813,3.93935675 39.0737296,3.93935675 C39.9640612,3.93935675 40.0064864,4.88114335 40.0064864,5.44790353 L40.0064864,8.04776514 L41.2786448,8.04776514 L41.2786448,4.80637924 C41.2786448,3.7578729 40.7910538,2.78413067 39.4232893,2.78413067 C38.5753829,2.78413067 38.0979501,3.22306834 37.8649102,3.73616719 L37.8439964,3.73616719 L37.8439964,2.91255612 L36.635177,2.91255612 L36.635177,8.04776514 L37.9073354,8.04776514 L37.9073354,5.24471398 Z" id="Fill-12" fill="#EC0000"></path>
                        <path d="M43.1764853,6.35725216 C43.1764853,7.56613958 43.4943755,8.17570824 44.8412261,8.17570824 C45.137605,8.17570824 45.5827708,8.13289976 45.8480776,8.00447431 L45.8480776,6.92401235 C45.6891325,7.04218787 45.3814005,7.08499636 45.1591163,7.08499636 C44.5968331,7.08499636 44.4486437,6.76363127 44.4486437,6.25053243 L44.4486437,4.00399153 L45.8480776,4.00399153 L45.8480776,2.9126767 L44.4486437,2.9126767 L44.4486437,1.42583563 L43.1764853,1.42583563 L43.1764853,2.9126767 L42.126611,2.9126767 L42.126611,4.00399153 L43.1764853,4.00399153 L43.1764853,6.35725216 Z" id="Fill-14" fill="#EC0000"></path>
                        <path d="M49.1769618,3.74702005 C49.9722849,3.74702005 50.4598759,4.21791335 50.4706316,4.96676031 L47.8623782,4.96676031 C47.9579843,4.22816327 48.4240639,3.74702005 49.1769618,3.74702005 M49.3574183,8.17558765 C50.1628995,8.17558765 50.9157974,7.88678113 51.5091526,7.14878702 L50.5979072,6.45360139 C50.2794194,6.84912765 49.8659231,7.14878702 49.2301427,7.14878702 C48.51967,7.14878702 47.9472286,6.68874658 47.8623782,5.92904675 L51.74279,5.92904675 L51.74279,5.57632898 C51.74279,3.78982853 50.7777661,2.78413067 49.3574183,2.78413067 C47.819953,2.78413067 46.5902198,3.86459264 46.5902198,5.47985916 C46.5902198,7.09512569 47.819953,8.17558765 49.3574183,8.17558765" id="Fill-16" fill="#EC0000"></path>
                        <path d="M2.81482515,16.4239983 L3.99137746,13.3429935 L5.14701595,16.4239983 L2.81482515,16.4239983 Z M3.45120311,11.7385798 L0.185657957,19.3120635 L1.68069803,19.3120635 L2.35890365,17.5792244 L5.61369313,17.5792244 L6.31341012,19.3120635 L7.84011971,19.3120635 L4.60624406,11.7385798 L3.45120311,11.7385798 Z" id="Fill-18" fill="#EC0000"></path>
                        <path d="M14.5617051,14.0489717 C13.7986491,14.0489717 13.2578772,14.348631 12.8868061,15.0010082 C12.6214993,14.3594839 12.0807274,14.0489717 11.29616,14.0489717 C10.4482536,14.0489717 9.96066255,14.4981593 9.73778088,14.9799054 L9.71686705,14.9799054 L9.71686705,14.1773971 L8.50804768,14.1773971 L8.50804768,19.3120032 L9.78020608,19.3120032 L9.78020608,16.509555 C9.78020608,15.8246193 10.108852,15.2041978 10.9466002,15.2041978 C11.5614668,15.2041978 11.816018,15.6214297 11.816018,16.2527041 L11.816018,19.3120032 L13.0881764,19.3120032 L13.0881764,16.5306578 C13.0881764,15.8674278 13.3851528,15.2041978 14.1798784,15.2041978 C14.9327762,15.2041978 15.1233909,15.760708 15.1233909,16.4022323 L15.1233909,19.3120032 L16.3955492,19.3120032 L16.3955492,16.2527041 C16.3955492,15.0227139 15.9187139,14.0489717 14.5617051,14.0489717" id="Fill-20" fill="#EC0000"></path>
                        <g id="Group-24" transform="translate(17.119754, 14.014182)">
                            <mask id="mask-4" fill="white">
                                <use xlink:href="#path-3"></use>
                            </mask>
                            <g id="Clip-23"></g>
                            <path d="M1.64037291,1.60748865 C1.64037291,1.22221231 2.04311352,1.06183123 2.38251511,1.06183123 C2.81692523,1.06183123 3.13541298,1.24391802 3.37920849,1.58578294 L4.22711491,0.815833197 C3.81361861,0.249073013 3.09298779,0.0350306029 2.41418462,0.0350306029 C1.38582173,0.0350306029 0.368214517,0.54812945 0.368214517,1.69310561 C0.368214517,3.65083999 3.11390162,2.81637606 3.11390162,3.87513232 C3.11390162,4.28211436 2.63706629,4.46359821 2.2659952,4.46359821 C1.72522331,4.46359821 1.38582173,4.1964974 1.05717583,3.83232384 L0.209269409,4.63483214 C0.728529929,5.22329803 1.40733309,5.42648759 2.19190049,5.42648759 C3.23042153,5.42648759 4.38606001,4.99840277 4.38606001,3.77926543 C4.38606001,1.77872257 1.64037291,2.52756954 1.64037291,1.60748865" id="Fill-22" fill="#EC0000" mask="url(#mask-4)"></path>
                        </g>
                        <g id="Group-27" transform="translate(21.580984, 12.527329)">
                            <mask id="mask-6" fill="white">
                                <use xlink:href="#path-5"></use>
                            </mask>
                            <g id="Clip-26"></g>
                            <path d="M2.63908632,0.163045701 L1.36692792,0.163045701 L1.36692792,1.64988678 L0.317053662,1.64988678 L0.317053662,2.7412016 L1.36692792,2.7412016 L1.36692792,5.09446224 C1.36692792,6.30334965 1.68481814,6.91352125 3.03107125,6.91352125 C3.32804763,6.91352125 3.77321344,6.87071277 4.03852031,6.74228733 L4.03852031,5.66182536 C3.8795752,5.77939795 3.57184313,5.82220643 3.349559,5.82220643 C2.78727574,5.82220643 2.63908632,5.50144428 2.63908632,4.9877425 L2.63908632,2.7412016 L4.03852031,2.7412016 L4.03852031,1.64988678 L2.63908632,1.64988678 L2.63908632,0.163045701 Z" id="Fill-25" fill="#EC0000" mask="url(#mask-6)"></path>
                        </g>
                        <g id="Group-30" transform="translate(26.361288, 14.014182)">
                            <mask id="mask-8" fill="white">
                                <use xlink:href="#path-7"></use>
                            </mask>
                            <g id="Clip-29"></g>
                            <path d="M1.27245717,2.21705731 C1.36806325,1.4790632 1.83414288,0.997317043 2.58704076,0.997317043 C3.38236384,0.997317043 3.86995484,1.46821034 3.88071053,2.21705731 L1.27245717,2.21705731 Z M2.76749724,0.0350306029 C1.23003197,0.0350306029 0.000298768999,1.11549257 0.000298768999,2.73075909 C0.000298768999,4.34602562 1.23003197,5.42648759 2.76749724,5.42648759 C3.57297846,5.42648759 4.32587633,5.13768107 4.9198291,4.39968696 L4.00798612,3.70389839 C3.68949837,4.10002758 3.27600207,4.39968696 2.64022164,4.39968696 C1.92974896,4.39968696 1.35730756,3.93964651 1.27245717,3.17994669 L5.15286892,3.17994669 L5.15286892,2.82662598 C5.15286892,1.04072846 4.18784506,0.0350306029 2.76749724,0.0350306029 L2.76749724,0.0350306029 Z" id="Fill-28" fill="#EC0000" mask="url(#mask-8)"></path>
                        </g>
                        <path d="M33.9950152,14.9903965 L33.9735038,14.9903965 L33.9735038,14.1776383 L32.7013454,14.1776383 L32.7013454,19.3122444 L33.9735038,19.3122444 L33.9735038,16.5628546 C33.9735038,16.2849009 34.1432046,15.2683502 35.3412683,15.2683502 C35.5426386,15.2683502 35.7440089,15.3111587 35.9561349,15.36482 L35.9561349,14.123977 C35.8079454,14.0811685 35.659756,14.0492128 35.5002134,14.0492128 C34.8327634,14.0492128 34.2704802,14.4019306 33.9950152,14.9903965" id="Fill-31" fill="#EC0000"></path>
                        <path d="M39.1580422,18.2853232 C38.2252854,18.2853232 37.6630021,17.5473291 37.6630021,16.7448208 C37.6630021,15.9429154 38.2252854,15.2043183 39.1580422,15.2043183 C40.090799,15.2043183 40.6530823,15.9429154 40.6530823,16.7448208 C40.6530823,17.5473291 40.090799,18.2853232 39.1580422,18.2853232 L39.1580422,18.2853232 Z M40.6106571,14.8298949 L40.57839,14.8298949 C40.3136807,14.4982799 39.8045783,14.0490923 38.8503102,14.0490923 C37.3982928,14.0490923 36.3908438,15.226024 36.3908438,16.7448208 C36.3908438,18.2642204 37.3343563,19.4405492 38.903491,19.4405492 C39.6139637,19.4405492 40.2820112,19.1625956 40.6530823,18.5421741 L40.6739961,18.5421741 L40.6739961,19.3121238 L41.8828155,19.3121238 L41.8828155,11.2249383 L40.6106571,11.2249383 L40.6106571,14.8298949 Z" id="Fill-33" fill="#EC0000"></path>
                        <g id="Group-37" transform="translate(42.813888, 14.014182)">
                            <mask id="mask-10" fill="white">
                                <use xlink:href="#path-9"></use>
                            </mask>
                            <g id="Clip-36"></g>
                            <path d="M3.61702861,3.2869076 C3.61702861,4.00379894 3.20353232,4.46383938 2.33411453,4.46383938 C1.92061823,4.46383938 1.44378291,4.26064983 1.44378291,3.78975653 C1.44378291,3.05176242 2.65200474,2.99810108 3.35231928,2.99810108 L3.61702861,2.99810108 L3.61702861,3.2869076 Z M2.66276043,0.034668841 C1.85727921,0.034668841 1.06195613,0.280666878 0.500270414,0.858279917 L1.16772036,1.53236277 C1.50712194,1.21160063 1.99471295,0.997558217 2.52472915,0.997558217 C3.20353232,0.997558217 3.69112332,1.32917322 3.69112332,1.96044759 L3.69112332,2.09912296 L3.37323311,2.09912296 C2.10107471,2.09912296 0.171624516,2.21729849 0.171624516,3.88622635 C0.171624516,4.90217412 1.0834675,5.42672876 2.02698,5.42672876 C2.70518563,5.42672876 3.29913839,5.16987787 3.65945381,4.59226483 L3.69112332,4.59226483 L3.69112332,5.29830332 L4.83660366,5.29830332 L4.83660366,2.34572393 C4.83660366,1.61797974 4.83660366,0.034668841 2.66276043,0.034668841 L2.66276043,0.034668841 Z" id="Fill-35" fill="#EC0000" mask="url(#mask-10)"></path>
                        </g>
                        <g id="Group-40" transform="translate(48.789268, 14.014182)">
                            <mask id="mask-12" fill="white">
                                <use xlink:href="#path-11"></use>
                            </mask>
                            <g id="Clip-39"></g>
                            <path d="M6.22922572,0.0347894283 C5.4661697,0.0347894283 4.92539781,0.334448802 4.55432671,0.98682595 C4.28901984,0.345301657 3.74824795,0.0347894283 2.96368056,0.0347894283 C2.11577414,0.0347894283 1.62818314,0.483977021 1.40530147,0.965723177 L1.38438764,0.965723177 L1.38438764,0.163214874 L0.175568266,0.163214874 L0.175568266,5.29782097 L1.44772666,5.29782097 L1.44772666,2.49537274 C1.44772666,1.81043703 1.77637256,1.19001551 2.61412083,1.19001551 C3.22898743,1.19001551 3.48353862,1.60724747 3.48353862,2.23852185 L3.48353862,5.29782097 L4.75569702,5.29782097 L4.75569702,2.51647551 C4.75569702,1.85324551 5.0526734,1.19001551 5.84739894,1.19001551 C6.60029682,1.19001551 6.79091144,1.74652577 6.79091144,2.38805006 L6.79091144,5.29782097 L8.06366737,5.29782097 L8.06366737,2.23852185 C8.06366737,1.00853166 7.58623451,0.0347894283 6.22922572,0.0347894283" id="Fill-38" fill="#EC0000" mask="url(#mask-12)"></path>
                        </g>
                    </g>
                    <g id="kruizen">
                        <polygon id="Fill-41" fill="#EC0000" points="0 63.4113965 5.75365729 57.5618561 0 51.7123157 3.83646017 47.8105345 9.59218341 53.6621625 15.3458407 47.8105345 19.1823009 51.7123157 13.4286436 57.5618561 19.1823009 63.4113965 15.3458407 67.3110901 9.59218341 61.4615497 3.83646017 67.3110901"></polygon>
                        <g id="Group-45" transform="translate(0.000000, 0.507752)">
                            <mask id="mask-14" fill="white">
                                <use xlink:href="#path-13"></use>
                            </mask>
                            <g id="Clip-44"></g>
                            <polygon id="Fill-43" fill="#EC0000" mask="url(#mask-14)" points="0.00061978355 16.0655685 5.75634302 10.2160281 0.00061978355 4.36440012 3.83707996 0.464706528 9.59280319 6.31424692 15.3464605 0.464706528 19.1829206 4.36440012 13.4292634 10.2160281 19.1829206 16.0655685 15.3464605 19.9652621 9.59280319 14.1157217 3.83707996 19.9652621"></polygon>
                        </g>
                        <polygon id="Fill-46" fill="#EC0000" points="0.00061978355 40.0123999 5.75634302 34.1628595 0.00061978355 28.3112315 3.83707996 24.4115379 9.59280319 30.2631659 15.3464605 24.4115379 19.1829206 28.3112315 13.4292634 34.1628595 19.1829206 40.0123999 15.3464605 43.9120935 9.59280319 38.0625531 3.83707996 43.9120935"></polygon>
                    </g>
                </g>
            </g>
        </g>
    </g>
</svg>