<?xml version="1.0" encoding="UTF-8"?>
<svg width="64px" height="30px" viewBox="0 0 64 30" version="1.1" xmlns="http://www.w3.org/2000/svg" xmlns:xlink="http://www.w3.org/1999/xlink">
    <!-- Generator: Sketch 42 (36781) - http://www.bohemiancoding.com/sketch -->
    <title>logo klein</title>
    <desc>Created with Sketch.</desc>
    <defs>
        <polygon id="path-1" points="6.66393592 0.123276603 0.211176921 0.123276603 0.211176921 7.42053283 6.66393592 7.42053283 6.66393592 0.123276603"></polygon>
        <polygon id="path-3" points="0.190949007 4.9752889 4.00208424 4.9752889 4.00208424 0.0321182539 0.190949007 0.0321182539 0.190949007 4.9752889"></polygon>
        <polygon id="path-5" points="0.289297332 6.33852879 3.68496975 6.33852879 3.68496975 0.149490525 0.289297332 0.149490525 0.289297332 6.33852879"></polygon>
        <polygon id="path-7" points="0.000272613392 4.9752889 4.70176318 4.9752889 4.70176318 0.0321182539 0.000272613392 0.0321182539 0.000272613392 4.9752889"></polygon>
        <polygon id="path-9" points="0.15659972 4.9752889 4.41318523 4.9752889 4.41318523 0.0317865679 0.15659972 0.0317865679 0.15659972 4.9752889"></polygon>
        <polygon id="path-11" points="7.35730083 4.85737455 7.35730083 0.0318971299 0.160198216 0.0318971299 0.160198216 4.85737455 7.35730083 4.85737455"></polygon>
        <polygon id="path-13" points="8.4337381 0.205385991 0.000272486774 0.205385991 0.000272486774 8.80820387 8.4337381 8.80820387 8.4337381 0.205385991"></polygon>
    </defs>
    <g id="Symbols" stroke="none" stroke-width="1" fill="none" fill-rule="evenodd">
        <g id="applicatieheader" transform="translate(-10.000000, -10.000000)">
            <g id="header-home">
                <g id="logo-klein" transform="translate(10.000000, 10.000000)">
                    <g id="Group-6" transform="translate(12.000000, 1.000000)">
                        <g id="Group-5">
                            <g id="Group-3" transform="translate(0.354662, 0.134454)">
                                <mask id="mask-2" fill="white">
                                    <use xlink:href="#path-1"></use>
                                </mask>
                                <g id="Clip-2"></g>
                                <path d="M3.82930187,7.42053283 C4.88377047,7.42053283 5.83191985,7.18503582 6.66393592,6.73394296 L6.66393592,3.18324512 L4.04194031,3.18324512 L4.04194031,4.3015795 L5.44480883,4.3015795 L5.44480883,5.93955516 C5.01898671,6.18444994 4.45794835,6.30219844 3.83911595,6.30219844 C2.42643335,6.30219844 1.48809805,5.20376522 1.48809805,3.72278756 C1.48809805,2.33965724 2.42643335,1.24122402 3.83911595,1.24122402 C4.52555647,1.24122402 5.19345928,1.4866716 5.62855026,1.91786331 L6.52817445,0.996329242 C5.81229168,0.348988876 4.87395639,0.122889636 3.82930187,0.122889636 C1.72036466,0.122889636 0.211176921,1.57456837 0.211176921,3.80128656 C0.211176921,5.96885409 1.72036466,7.42053283 3.82930187,7.42053283" id="Fill-1" fill="#FF0000" mask="url(#mask-2)"></path>
                            </g>
                            <path d="M10.4816605,3.435503 C11.2073573,3.435503 11.6522624,3.86724751 11.6620764,4.55383738 L9.28216153,4.55383738 C9.36939781,3.87664528 9.79467471,3.435503 10.4816605,3.435503 M10.6463189,7.49589155 C11.3812847,7.49589155 12.0682704,7.23109562 12.6096806,6.55445633 L11.7782098,5.91706654 C11.4876039,6.27970982 11.1103069,6.55445633 10.5301856,6.55445633 C9.88191099,6.55445633 9.35958373,6.13266239 9.28216153,5.43612194 L12.8228643,5.43612194 L12.8228643,5.11272817 C12.8228643,3.4747525 11.942323,2.55266562 10.6463189,2.55266562 C9.24345043,2.55266562 8.1213737,3.54330092 8.1213737,5.02427859 C8.1213737,6.50525625 9.24345043,7.49589155 10.6463189,7.49589155" id="Fill-4" fill="#FF0000"></path>
                            <path d="M21.0550799,7.37841945 L21.0550799,4.57346213 C21.0550799,3.44517717 20.619989,2.55294203 19.3817789,2.55294203 C18.6849791,2.55294203 18.1915489,2.82713573 17.852963,3.42582882 C17.6114276,2.83708631 17.1179973,2.55294203 16.4021145,2.55294203 C15.6278925,2.55294203 15.1829875,2.96478539 14.9801631,3.40592767 L14.9605349,3.40592767 L14.9605349,2.67069053 L13.8575411,2.67069053 L13.8575411,7.37841945 L15.0188742,7.37841945 L15.0188742,4.80840633 C15.0188742,4.18096712 15.3187489,3.61212575 16.0826117,3.61212575 C16.64365,3.61212575 16.8759166,3.99467019 16.8759166,4.57346213 L16.8759166,7.37841945 L18.0367044,7.37841945 L18.0367044,4.82830748 C18.0367044,4.22021662 18.3076822,3.61212575 19.033379,3.61212575 C19.7203648,3.61212575 19.8942921,4.12181646 19.8942921,4.71055898 L19.8942921,7.37841945 L21.0550799,7.37841945 Z" id="Fill-6" fill="#FF0000"></path>
                            <path d="M24.4506433,3.435503 C25.1763402,3.435503 25.6212452,3.86724751 25.6310593,4.55383738 L23.2511444,4.55383738 C23.3383807,3.87664528 23.7636576,3.435503 24.4506433,3.435503 M24.6153018,7.49589155 C25.3502675,7.49589155 26.0372532,7.23109562 26.5786634,6.55445633 L25.7466474,5.91706654 C25.4565867,6.27970982 25.0792898,6.55445633 24.4991685,6.55445633 C23.8508938,6.55445633 23.3285666,6.13266239 23.2511444,5.43612194 L26.7918471,5.43612194 L26.7918471,5.11272817 C26.7918471,3.4747525 25.9113059,2.55266562 24.6153018,2.55266562 C23.2124333,2.55266562 22.0903566,3.54330092 22.0903566,5.02427859 C22.0903566,6.50525625 23.2124333,7.49589155 24.6153018,7.49589155" id="Fill-8" fill="#FF0000"></path>
                            <path d="M30.0032874,3.435503 C30.7289843,3.435503 31.1738893,3.86724751 31.1837034,4.55383738 L28.8037885,4.55383738 C28.8910248,3.87664528 29.3163017,3.435503 30.0032874,3.435503 M30.1679459,7.49589155 C30.9029116,7.49589155 31.5898974,7.23109562 32.1313075,6.55445633 L31.2998367,5.91706654 C31.0092308,6.27970982 30.6319339,6.55445633 30.0518126,6.55445633 C29.4035379,6.55445633 28.8812107,6.13266239 28.8037885,5.43612194 L32.3444912,5.43612194 L32.3444912,5.11272817 C32.3444912,3.4747525 31.46395,2.55266562 30.1679459,2.55266562 C28.7650774,2.55266562 27.6430007,3.54330092 27.6430007,5.02427859 C27.6430007,6.50525625 28.7650774,7.49589155 30.1679459,7.49589155" id="Fill-10" fill="#FF0000"></path>
                            <path d="M34.5887537,4.80868273 C34.5887537,4.18069071 34.8886284,3.61184935 35.6530364,3.61184935 C36.4654243,3.61184935 36.5041354,4.47533838 36.5041354,4.99497966 L36.5041354,7.37869585 L37.6649232,7.37869585 L37.6649232,4.40678995 C37.6649232,3.44545358 37.2200182,2.55266562 35.9719941,2.55266562 C35.1983173,2.55266562 34.7626811,2.95511121 34.5500426,3.42555242 L34.5309597,3.42555242 L34.5309597,2.67041413 L33.4279659,2.67041413 L33.4279659,7.37869585 L34.5887537,7.37869585 L34.5887537,4.80868273 Z" id="Fill-12" fill="#FF0000"></path>
                            <path d="M39.396618,5.82872752 C39.396618,6.93711132 39.6866787,7.49600211 40.9156199,7.49600211 C41.1860523,7.49600211 41.5922463,7.45675261 41.834327,7.3390041 L41.834327,6.3483688 C41.6892967,6.45671954 41.4085049,6.49596904 41.2056805,6.49596904 C40.6926221,6.49596904 40.5574059,6.20132138 40.5574059,5.73088017 L40.5574059,3.67111057 L41.834327,3.67111057 L41.834327,2.67052469 L40.5574059,2.67052469 L40.5574059,1.30729553 L39.396618,1.30729553 L39.396618,2.67052469 L38.4386546,2.67052469 L38.4386546,3.67111057 L39.396618,3.67111057 L39.396618,5.82872752 Z" id="Fill-14" fill="#FF0000"></path>
                            <path d="M44.8717854,3.435503 C45.5974823,3.435503 46.0423873,3.86724751 46.0522014,4.55383738 L43.6722865,4.55383738 C43.7595228,3.87664528 44.1847997,3.435503 44.8717854,3.435503 M45.0364439,7.49589155 C45.7714096,7.49589155 46.4583954,7.23109562 46.9998055,6.55445633 L46.1683347,5.91706654 C45.8777288,6.27970982 45.5004319,6.55445633 44.9203106,6.55445633 C44.2720359,6.55445633 43.7497087,6.13266239 43.6722865,5.43612194 L47.2129892,5.43612194 L47.2129892,5.11272817 C47.2129892,3.4747525 46.332448,2.55266562 45.0364439,2.55266562 C43.6335754,2.55266562 42.5114987,3.54330092 42.5114987,5.02427859 C42.5114987,6.50525625 43.6335754,7.49589155 45.0364439,7.49589155" id="Fill-16" fill="#FF0000"></path>
                            <path d="M2.56840246,15.0585518 L3.641954,12.2336933 L4.69642261,15.0585518 L2.56840246,15.0585518 Z M3.14906899,10.7626662 L0.169404609,17.7065111 L1.53356203,17.7065111 L2.15239443,16.1177355 L5.12224473,16.1177355 L5.76070529,17.7065111 L7.15375973,17.7065111 L4.20299237,10.7626662 L3.14906899,10.7626662 Z" id="Fill-18" fill="#FF0000"></path>
                            <path d="M13.2869068,12.8809784 C12.5906522,12.8809784 12.0972219,13.1557249 11.7586361,13.7538652 C11.5165554,13.1656755 11.0231252,12.8809784 10.3072424,12.8809784 C9.5335656,12.8809784 9.08866054,13.2928218 8.88529095,13.7345169 L8.86620801,13.7345169 L8.86620801,12.9987269 L7.76321423,12.9987269 L7.76321423,17.7064558 L8.92400205,17.7064558 L8.92400205,15.1369955 C8.92400205,14.5090035 9.22387678,13.9401621 9.98828474,13.9401621 C10.5493231,13.9401621 10.7815897,14.3227066 10.7815897,14.9014985 L10.7815897,17.7064558 L11.9423775,17.7064558 L11.9423775,15.1563439 C11.9423775,14.548253 12.2133552,13.9401621 12.9385069,13.9401621 C13.6254926,13.9401621 13.79942,14.4504056 13.79942,15.0385954 L13.79942,17.7064558 L14.9602078,17.7064558 L14.9602078,14.9014985 C14.9602078,13.7737664 14.5251168,12.8809784 13.2869068,12.8809784" id="Fill-20" fill="#FF0000"></path>
                            <g id="Group-24" transform="translate(15.621012, 12.849081)">
                                <mask id="mask-4" fill="white">
                                    <use xlink:href="#path-3"></use>
                                </mask>
                                <g id="Clip-23"></g>
                                <path d="M1.49676716,1.47384641 C1.49676716,1.1206009 1.86425001,0.973553475 2.17393882,0.973553475 C2.5703187,0.973553475 2.86092457,1.14050206 3.0833771,1.45394526 L3.85705391,0.748007045 C3.47975698,0.22836576 2.82221347,0.0321182539 2.20283584,0.0321182539 C1.26450055,0.0321182539 0.335979332,0.502559459 0.335979332,1.55234542 C0.335979332,3.34731909 2.84129641,2.58223022 2.84129641,3.55296436 C2.84129641,3.92611103 2.40620544,4.0925068 2.0676196,4.0925068 C1.57418936,4.0925068 1.26450055,3.84761203 0.964625815,3.51371486 L0.190949007,4.24950481 C0.664751083,4.78904725 1.28412871,4.97534418 2.00001148,4.97534418 C2.94761563,4.97534418 4.00208424,4.58284916 4.00208424,3.46506759 C4.00208424,1.63084442 1.49676716,2.31743429 1.49676716,1.47384641" id="Fill-22" fill="#FF0000" mask="url(#mask-4)"></path>
                            </g>
                            <g id="Group-27" transform="translate(19.691686, 11.485841)">
                                <mask id="mask-6" fill="white">
                                    <use xlink:href="#path-5"></use>
                                </mask>
                                <g id="Clip-26"></g>
                                <path d="M2.40804862,0.149490525 L1.24726079,0.149490525 L1.24726079,1.51271968 L0.289297332,1.51271968 L0.289297332,2.51330556 L1.24726079,2.51330556 L1.24726079,4.67092251 C1.24726079,5.77930632 1.53732144,6.33874991 2.76571739,6.33874991 C3.0366951,6.33874991 3.44288906,6.29950041 3.68496975,6.18175191 L3.68496975,5.19111661 C3.53993943,5.29891453 3.25914763,5.33816403 3.05632327,5.33816403 C2.54326486,5.33816403 2.40804862,5.04406918 2.40804862,4.57307516 L2.40804862,2.51330556 L3.68496975,2.51330556 L3.68496975,1.51271968 L2.40804862,1.51271968 L2.40804862,0.149490525 Z" id="Fill-25" fill="#FF0000" mask="url(#mask-6)"></path>
                            </g>
                            <g id="Group-30" transform="translate(24.053500, 12.849081)">
                                <mask id="mask-8" fill="white">
                                    <use xlink:href="#path-7"></use>
                                </mask>
                                <g id="Clip-29"></g>
                                <path d="M1.16106044,2.0327372 C1.24829672,1.35609791 1.67357362,0.914402818 2.36055937,0.914402818 C3.08625622,0.914402818 3.53116127,1.34614733 3.54097536,2.0327372 L1.16106044,2.0327372 Z M2.52521786,0.0321182539 C1.12234934,0.0321182539 0.000272613392,1.02275355 0.000272613392,2.50373122 C0.000272613392,3.98470888 1.12234934,4.97534418 2.52521786,4.97534418 C3.26018356,4.97534418 3.94716931,4.71054825 4.48912474,4.03390896 L3.65710866,3.39596636 C3.36650278,3.75916245 2.98920585,4.03390896 2.40908455,4.03390896 C1.7608099,4.03390896 1.23848264,3.61211502 1.16106044,2.91557457 L4.70176318,2.91557457 L4.70176318,2.59162799 C4.70176318,0.954205129 3.82122192,0.0321182539 2.52521786,0.0321182539 L2.52521786,0.0321182539 Z" id="Fill-28" fill="#FF0000" mask="url(#mask-8)"></path>
                            </g>
                            <path d="M31.0189359,13.7441357 L30.9993077,13.7441357 L30.9993077,12.998948 L29.8385199,12.998948 L29.8385199,17.7066769 L30.9993077,17.7066769 L30.9993077,15.1858639 C30.9993077,14.9310186 31.1541521,13.9989811 32.2473318,13.9989811 C32.4310732,13.9989811 32.6148147,14.0382306 32.8083702,14.0874307 L32.8083702,12.949748 C32.6731539,12.9104985 32.5379377,12.8811995 32.3923621,12.8811995 C31.7833438,12.8811995 31.2702854,13.2045933 31.0189359,13.7441357" id="Fill-31" fill="#FF0000"></path>
                            <path d="M35.7299679,16.7651312 C34.8788689,16.7651312 34.3658105,16.0884919 34.3658105,15.3527019 C34.3658105,14.6174648 34.8788689,13.9402727 35.7299679,13.9402727 C36.5810669,13.9402727 37.0941253,14.6174648 37.0941253,15.3527019 C37.0941253,16.0884919 36.5810669,16.7651312 35.7299679,16.7651312 L35.7299679,16.7651312 Z M37.0554142,13.5969778 L37.025972,13.5969778 C36.7844365,13.2929323 36.3199033,12.881089 35.4491761,12.881089 C34.124275,12.881089 33.2050227,13.9601738 33.2050227,15.3527019 C33.2050227,16.7457828 34.0659358,17.8243149 35.4977013,17.8243149 C36.1459759,17.8243149 36.7555395,17.5694695 37.0941253,17.0006282 L37.1132083,17.0006282 L37.1132083,17.7065664 L38.216202,17.7065664 L38.216202,10.2917275 L37.0554142,10.2917275 L37.0554142,13.5969778 Z" id="Fill-33" fill="#FF0000"></path>
                            <g id="Group-37" transform="translate(39.065764, 12.849081)">
                                <mask id="mask-10" fill="white">
                                    <use xlink:href="#path-9"></use>
                                </mask>
                                <g id="Clip-36"></g>
                                <path d="M3.30037736,3.01364305 C3.30037736,3.67093399 2.92308043,4.09272793 2.12977546,4.09272793 C1.75247852,4.09272793 1.31738755,3.906431 1.31738755,3.47468648 C1.31738755,2.79804719 2.4198361,2.74884711 3.0588419,2.74884711 L3.30037736,2.74884711 L3.30037736,3.01364305 Z M2.42965019,0.0317865679 C1.69468448,0.0317865679 0.968987629,0.257332998 0.456474451,0.78692486 L1.06549277,1.4049663 C1.37518158,1.11087145 1.82008664,0.914623942 2.3037028,0.914623942 C2.92308043,0.914623942 3.36798548,1.21866937 3.36798548,1.79746132 L3.36798548,1.92460759 L3.07792483,1.92460759 C1.91713701,1.92460759 0.15659972,2.03295832 0.15659972,3.56313606 C0.15659972,4.49462071 0.988615794,4.9755653 1.84952889,4.9755653 C2.46836129,4.9755653 3.01031671,4.74006829 3.33908846,4.21047643 L3.36798548,4.21047643 L3.36798548,4.8578168 L4.41318523,4.8578168 L4.41318523,2.15070683 C4.41318523,1.48346531 4.41318523,0.0317865679 2.42965019,0.0317865679 L2.42965019,0.0317865679 Z" id="Fill-35" fill="#FF0000" mask="url(#mask-10)"></path>
                            </g>
                            <g id="Group-40" transform="translate(44.518032, 12.849081)">
                                <mask id="mask-12" fill="white">
                                    <use xlink:href="#path-11"></use>
                                </mask>
                                <g id="Clip-39"></g>
                                <path d="M5.68389078,0.0318971299 C4.98763617,0.0318971299 4.49420593,0.306643639 4.1556201,0.904783926 C3.91353941,0.316594217 3.42010916,0.0318971299 2.7042264,0.0318971299 C1.93054959,0.0318971299 1.48564453,0.443740489 1.28227494,0.88543558 L1.263192,0.88543558 L1.263192,0.149645634 L0.160198216,0.149645634 L0.160198216,4.85737455 L1.32098604,4.85737455 L1.32098604,2.28791424 C1.32098604,1.65992222 1.62086077,1.09108085 2.38526873,1.09108085 C2.94630709,1.09108085 3.1785737,1.47362529 3.1785737,2.05241723 L3.1785737,4.85737455 L4.33936152,4.85737455 L4.33936152,2.30726258 C4.33936152,1.69917172 4.61033924,1.09108085 5.33549086,1.09108085 C6.02247661,1.09108085 6.19640395,1.60132437 6.19640395,2.18951408 L6.19640395,4.85737455 L7.35773701,4.85737455 L7.35773701,2.05241723 C7.35773701,0.924685082 6.92210081,0.0318971299 5.68389078,0.0318971299" id="Fill-38" fill="#FF0000" mask="url(#mask-12)"></path>
                            </g>
                        </g>
                    </g>
                    <g id="Group-4">
                        <polygon id="Fill-41" fill="#FF0000" points="0 27.9756161 2.52958554 25.3949365 0 22.8142569 1.68669312 21.0928829 4.21718695 23.6744835 6.74677249 21.0928829 8.43346561 22.8142569 5.90388007 25.3949365 8.43346561 27.9756161 6.74677249 29.6960692 4.21718695 27.1153896 1.68669312 29.6960692"></polygon>
                        <g id="Group-45" transform="translate(0.000000, 0.224008)">
                            <mask id="mask-14" fill="white">
                                <use xlink:href="#path-13"></use>
                            </mask>
                            <g id="Clip-44"></g>
                            <polygon id="Fill-43" fill="#FF0000" mask="url(#mask-14)" points="0.000272486774 7.08775082 2.53076631 4.50707124 0.000272486774 1.92547064 1.68696561 0.205017586 4.21745944 2.78569717 6.74704497 0.205017586 8.4337381 1.92547064 5.90415256 4.50707124 8.4337381 7.08775082 6.74704497 8.80820387 4.21745944 6.22752429 1.68696561 8.80820387"></polygon>
                        </g>
                        <polygon id="Fill-46" fill="#FF0000" points="0.000272486774 17.6525294 2.53076631 15.0718498 0.000272486774 12.4902492 1.68696561 10.7697961 4.21745944 13.3513967 6.74704497 10.7697961 8.4337381 12.4902492 5.90415256 15.0718498 8.4337381 17.6525294 6.74704497 19.3729824 4.21745944 16.7923028 1.68696561 19.3729824"></polygon>
                    </g>
                </g>
            </g>
        </g>
    </g>
</svg>