<svg id="logo_4" xmlns="http://www.w3.org/2000/svg" viewBox="0 0 451.73 340.19"><defs><style>.cls-1{fill:#ec0000;}</style></defs><title>Artboard 1</title><path class="cls-1" d="M187.42,47.1a35,35,0,0,1-16.7,4c-12.43,0-21.32-8.44-21.32-21,0-12.94,8.89-21.38,21.32-21.38,6.15,0,11.68,1.32,15.9,5.08l-5.3,5.36a15.26,15.26,0,0,0-10.55-3.94c-8.32,0-13.85,6.39-13.85,14.43,0,8.6,5.53,15,13.85,15a19.33,19.33,0,0,0,9.47-2.11V33H172v-6.5h15.45Z"/><path class="cls-1" d="M200.75,38.77a7.1,7.1,0,0,0,7.36,6.5,9,9,0,0,0,7.35-3.7l4.9,3.7a14.22,14.22,0,0,1-11.57,5.48c-8.26,0-14.88-5.76-14.88-14.37S200.53,22,208.79,22c7.64,0,12.83,5.36,12.83,14.88v1.88Zm14-5.13c-.06-4-2.68-6.49-7-6.49-4,0-6.55,2.56-7.07,6.49Z"/><path class="cls-1" d="M227.71,22.7h6.5V27h.12c1.19-2.56,3.82-5,8.38-5,4.22,0,7.12,1.66,8.55,5.08a9.51,9.51,0,0,1,9-5.08c7.3,0,9.87,5.19,9.87,11.75v16.3h-6.84V34.56c0-3.42-1-6.39-5.08-6.39-4.27,0-5.87,3.54-5.87,7.07V50.06H245.5V33.76c0-3.37-1.37-5.59-4.67-5.59-4.51,0-6.28,3.31-6.28,7V50.06h-6.84Z"/><path class="cls-1" d="M283.06,38.77a7.1,7.1,0,0,0,7.36,6.5,9,9,0,0,0,7.35-3.7l4.9,3.7a14.23,14.23,0,0,1-11.57,5.48c-8.27,0-14.88-5.76-14.88-14.37S282.83,22,291.1,22c7.64,0,12.83,5.36,12.83,14.88v1.88Zm14-5.13c-.05-4-2.67-6.49-6.95-6.49-4.05,0-6.56,2.56-7.07,6.49Z"/><path class="cls-1" d="M315.78,38.77a7.08,7.08,0,0,0,7.35,6.5,9,9,0,0,0,7.36-3.7l4.9,3.7a14.23,14.23,0,0,1-11.57,5.48c-8.27,0-14.88-5.76-14.88-14.37S315.55,22,323.82,22c7.64,0,12.82,5.36,12.82,14.88v1.88Zm14-5.13c-.05-4-2.68-6.49-6.95-6.49-4.05,0-6.56,2.56-7.07,6.49Z"/><path class="cls-1" d="M343,22.7h6.5v4.39h.12C350.89,24.35,353.46,22,358,22c7.35,0,10,5.19,10,10.78V50.06h-6.84V36.21c0-3-.23-8-5-8-4.5,0-6.27,3.31-6.27,7V50.06H343Z"/><path class="cls-1" d="M372.55,28.51V22.7h5.64V14.77H385V22.7h7.53v5.81H385v12c0,2.74.8,4.45,3.82,4.45a7.22,7.22,0,0,0,3.71-.85v5.75a14.35,14.35,0,0,1-5.42.92c-7.24,0-8.95-3.25-8.95-9.7V28.51Z"/><path class="cls-1" d="M403.39,38.77a7.08,7.08,0,0,0,7.35,6.5,9,9,0,0,0,7.35-3.7l4.91,3.7a14.25,14.25,0,0,1-11.58,5.48c-8.26,0-14.87-5.76-14.87-14.37S403.16,22,411.42,22c7.64,0,12.83,5.36,12.83,14.88v1.88Zm14-5.13c-.06-4-2.68-6.49-7-6.49-4,0-6.56,2.56-7.07,6.49Z"/><path class="cls-1" d="M164.62,69.72h6.21l17.39,40.36H180l-3.76-9.23h-17.5l-3.65,9.23h-8Zm9.12,25-6.22-16.42L161.2,94.69Z"/><path class="cls-1" d="M191.8,82.72h6.5V87h.12c1.19-2.57,3.82-5,8.38-5,4.22,0,7.12,1.65,8.55,5.07,2-3.48,4.9-5.07,9-5.07,7.3,0,9.87,5.18,9.87,11.74v16.3h-6.84V94.58c0-3.42-1-6.39-5.08-6.39-4.27,0-5.87,3.54-5.87,7.07v14.82h-6.84V93.78c0-3.36-1.37-5.59-4.67-5.59-4.51,0-6.28,3.31-6.28,7v14.93H191.8Z"/><path class="cls-1" d="M256.27,90.3a6.22,6.22,0,0,0-5.36-2.79c-1.82,0-4,.85-4,2.91,0,4.9,14.77.91,14.77,11.57,0,6.5-6.22,8.78-11.8,8.78-4.22,0-7.87-1.09-10.66-4.22l4.56-4.28c1.76,1.94,3.59,3.37,6.5,3.37,2,0,4.56-1,4.56-3.14,0-5.64-14.77-1.2-14.77-11.63,0-6.1,5.47-8.83,11-8.83,3.65,0,7.53,1.14,9.75,4.16Z"/><path class="cls-1" d="M263.79,88.53V82.72h5.65V74.8h6.84v7.92h7.52v5.81h-7.52v12c0,2.73.8,4.44,3.82,4.44a7.18,7.18,0,0,0,3.7-.85v5.75a14.3,14.3,0,0,1-5.41.92c-7.24,0-8.95-3.25-8.95-9.69V88.53Z"/><path class="cls-1" d="M294.63,98.8a7.09,7.09,0,0,0,7.35,6.49,9,9,0,0,0,7.36-3.7l4.9,3.7a14.23,14.23,0,0,1-11.57,5.48c-8.27,0-14.88-5.76-14.88-14.37S294.4,82,302.67,82c7.64,0,12.83,5.35,12.83,14.87V98.8Zm14-5.13c0-4-2.67-6.5-6.95-6.5-4.05,0-6.56,2.56-7.07,6.5Z"/><path class="cls-1" d="M321.88,82.72h6.84v4.33h.11a8.71,8.71,0,0,1,8.1-5,9.15,9.15,0,0,1,2.45.39v6.62a13.55,13.55,0,0,0-3.31-.52,6.88,6.88,0,0,0-7.35,6.9v14.65h-6.84Z"/><path class="cls-1" d="M364.74,106h-.11c-2,3.31-5.59,4.79-9.41,4.79-8.44,0-13.51-6.27-13.51-14.37S347.13,82,354.94,82a11.25,11.25,0,0,1,9.29,4.16h.17V67h6.84v43.09h-6.5Zm-8.15-1.37a8.21,8.21,0,1,0-8-8.21A7.92,7.92,0,0,0,356.59,104.61Z"/><path class="cls-1" d="M396.09,106.32h-.17c-1.94,3.08-5.13,4.45-8.78,4.45-5.07,0-10-2.8-10-8.21,0-8.89,10.38-9.52,17.22-9.52h1.71V92.3c0-3.37-2.62-5.13-6.27-5.13a10.78,10.78,0,0,0-7.3,2.85l-3.59-3.59A16,16,0,0,1,390.56,82c11.69,0,11.69,8.43,11.69,12.31v15.73h-6.16Zm-.4-8.49h-1.42c-3.77,0-10.27.28-10.27,4.21,0,2.51,2.57,3.6,4.79,3.6,4.68,0,6.9-2.45,6.9-6.27Z"/><path class="cls-1" d="M409.31,82.72h6.5V87h.11c1.2-2.57,3.82-5,8.38-5,4.22,0,7.13,1.65,8.56,5.07,2-3.48,4.9-5.07,9-5.07,7.3,0,9.87,5.18,9.87,11.74v16.3h-6.85V94.58c0-3.42-1-6.39-5.07-6.39-4.27,0-5.87,3.54-5.87,7.07v14.82H427.1V93.78c0-3.36-1.37-5.59-4.68-5.59-4.5,0-6.27,3.31-6.27,7v14.93h-6.84Z"/><polygon class="cls-1" points="0 320.19 30 290.19 0 260.19 20 240.19 50 270.19 80 240.19 100 260.19 70 290.19 100 320.19 80 340.19 50 310.19 20 340.19 0 320.19"/><polygon class="cls-1" points="0 80 30 50 0 20 20 0 50 30 80 0 100 20 70 50 100 80 80 100 50 70 20.01 100 0 80"/><polygon class="cls-1" points="0 200.2 30 170.2 0 140.2 20 120.2 50 150.2 80 120.2 100 140.2 70 170.2 100 200.2 80 220.2 50 190.2 20 220.2 0 200.2"/></svg>