<?xml version="1.0" encoding="UTF-8"?>
<svg viewBox="0 0 1024 1024" version="1.1" xmlns="http://www.w3.org/2000/svg" xmlns:xlink="http://www.w3.org/1999/xlink">
        <path d="M389.559322,782.016949 C642.983051,782.016949 779.661017,571.305085 779.661017,391.915254 L779.661017,374.830508 C805.288136,354.898305 830.915254,332.118644 848,303.644068 C822.372881,315.033898 796.745763,320.728814 768.271186,326.423729 C796.745763,309.338983 819.525424,283.711864 828.067797,249.542373 C802.440678,266.627119 771.118644,278.016949 739.79661,283.711864 C714.169492,258.084746 680,241 640.135593,241 C563.254237,241 503.457627,303.644068 503.457627,377.677966 C503.457627,389.067797 503.457627,397.610169 506.305085,409 C392.40678,403.305085 289.898305,349.20339 224.40678,266.627119 C213.016949,280.864407 207.322034,306.491525 207.322034,332.118644 C207.322034,380.525424 232.949153,423.237288 267.118644,446.016949 C244.338983,446.016949 224.40678,440.322034 204.474576,428.932203 L204.474576,431.779661 C204.474576,497.271186 252.881356,554.220339 315.525424,565.610169 C304.135593,568.457627 292.745763,571.305085 278.508475,571.305085 C269.966102,571.305085 261.423729,571.305085 252.881356,568.457627 C269.966102,622.559322 321.220339,662.423729 381.016949,665.271186 C332.610169,702.288136 275.661017,725.067797 210.169492,725.067797 C198.779661,725.067797 187.389831,725.067797 176,722.220339 C238.644068,759.237288 309.830508,782.016949 389.559322,782.016949" id="path-1"></path>
</svg>