<svg viewBox="0 0 32 32" xmlns="http://www.w3.org/2000/svg"><path d="M10.17 29c12.067 0 18.576-10.126 18.576-18.747v-.821c1.22-.958 2.44-2.053 3.254-3.421-1.22.547-2.44.82-3.797 1.094 1.356-.82 2.441-2.052 2.848-3.694-1.22.82-2.712 1.368-4.204 1.642C25.627 3.82 24 3 22.102 3c-3.661 0-6.509 3.01-6.509 6.568 0 .548 0 .958.136 1.506C10.305 10.8 5.424 8.2 2.305 4.232c-.542.684-.813 1.915-.813 3.147 0 2.326 1.22 4.379 2.847 5.474-1.085 0-2.034-.274-2.983-.821v.136c0 3.148 2.305 5.885 5.288 6.432-.542.137-1.085.274-1.763.274-.406 0-.813 0-1.22-.137.814 2.6 3.254 4.516 6.102 4.652-2.305 1.78-5.017 2.874-8.136 2.874-.542 0-1.085 0-1.627-.137C2.983 27.906 6.373 29 10.17 29"/></svg>