<svg viewBox="0 0 32 32" xmlns="http://www.w3.org/2000/svg"><path d="M20.06 15a9.01 9.01 0 014.215-6.622A11.221 11.221 0 0017 4.794V15h3.06zm2.017 0h5.13a11.183 11.183 0 00-1.705-5.025A7.012 7.012 0 0022.077 15zm-.011 2a7.01 7.01 0 003.398 5.085A11.183 11.183 0 0027.206 17h-5.14zm-2.015 0H17v10.206a11.22 11.22 0 007.227-3.532A9.009 9.009 0 0120.05 17zm-8.106 0a9.01 9.01 0 01-4.196 6.648A11.22 11.22 0 0015 27.206V17h-3.055zm-2.016 0H4.794c.163 1.85.773 3.571 1.723 5.055A7.011 7.011 0 009.929 17zm0-2a7.01 7.01 0 00-3.412-5.055A11.183 11.183 0 004.794 15h5.135zm2.016 0H15V4.794a11.22 11.22 0 00-7.25 3.558A9.01 9.01 0 0111.944 15zM16 31C7.716 31 1 24.284 1 16 1 7.716 7.716 1 16 1c8.284 0 15 6.716 15 15 0 8.284-6.716 15-15 15z" fill-rule="evenodd"/></svg>