<svg viewBox="0 0 32 32" xmlns="http://www.w3.org/2000/svg"><path d="m26.3 18.3 5.3-5.3L19.9 1.4l-4.2 4.2-3.8-3.8L.5 13.2l5.4 5.4-1.2 1.2a2.9 2.9 0 0 0 0 4.2 2.9 2.9 0 0 0 2.1.9 3.1 3.1 0 0 0 .9 2.2 3.3 3.3 0 0 0 2.2.8 3.3 3.3 0 0 0 .8 2.2 3.1 3.1 0 0 0 2.2.9 2.7 2.7 0 0 0 2.1-.9l1.2-1.2.9.9a3.3 3.3 0 0 0 2.1.9 3.4 3.4 0 0 0 2.2-.9 3.1 3.1 0 0 0 .9-2.2 2.9 2.9 0 0 0 2.1-.9 2.7 2.7 0 0 0 .9-2.1 3.1 3.1 0 0 0 3-3 3.1 3.1 0 0 0-.9-2.2l-1.1-1.1zM19.9 4.2l8.8 8.8-3.5 3.6-.3.3-7.2-7.2-2.4 2.4a1.2 1.2 0 0 1-1.6 0 1.2 1.2 0 0 1 0-1.7l6.2-6.2zM7.6 22.6a1.1 1.1 0 0 1-1.5 0 1 1 0 0 1 0-1.4L7.3 20l1.5 1.4-1.2 1.2zm3 3a1.1 1.1 0 0 1-1.5 0 .9.9 0 0 1-.3-.7 1.1 1.1 0 0 1 .3-.7l1.2-1.2 1.5 1.5-1.2 1.1zm3 3.1a1 1 0 0 1-1.4 0 1.1 1.1 0 0 1-.3-.8 1.1 1.1 0 0 1 .3-.7l1.1-1.2 1.5 1.5-1.2 1.2zM26 22.3a1 1 0 0 1-1.4 0L21.3 19l-1.6 1.6 3.3 3.3a1 1 0 0 1 0 1.4 1.1 1.1 0 0 1-.7.3 1.1 1.1 0 0 1-.8-.3l-3.2-3.2-1.6 1.5 3.3 3.3a1.1 1.1 0 0 1 0 1.5 1.1 1.1 0 0 1-.8.3 1.1 1.1 0 0 1-.7-.3L3.3 13.2l.2-.2 8.4-8.4L14.3 7l-2 2a3.1 3.1 0 0 0 0 4.5 3.3 3.3 0 0 0 4.5 0l.9-.9 8.3 8.3a1 1 0 0 1 0 1.4z" fill-rule="evenodd"/></svg>