<svg viewBox="0 0 32 32" xmlns="http://www.w3.org/2000/svg"><path d="M16 2c7.732 0 14 6.268 14 14s-6.268 14-14 14S2 23.732 2 16 8.268 2 16 2zm0 4C10.477 6 6 10.477 6 16s4.477 10 10 10 10-4.477 10-10S21.523 6 16 6zm.75 5c.394 0 .792.036 1.194.107.402.072.732.17.992.295l-.657 1.69a2.763 2.763 0 0 0-.73-.229 4.754 4.754 0 0 0-.865-.08c-.233 0-.46.029-.684.087a2.47 2.47 0 0 0-.623.255 2.118 2.118 0 0 0-.516.422 1.81 1.81 0 0 0-.349.576h3.552l-.469 1.394h-3.458a1.08 1.08 0 0 0-.027.235v.483c0 .084.004.163.013.234h3.23l-.455 1.38h-2.493c.062.189.16.365.295.53.134.166.3.309.496.43.196.12.415.214.657.28.24.068.496.101.764.101.66 0 1.228-.138 1.702-.415l.496 1.702a3.71 3.71 0 0 1-.999.376c-.406.098-.86.147-1.36.147-.59 0-1.12-.08-1.589-.241a3.992 3.992 0 0 1-1.226-.664 3.912 3.912 0 0 1-.878-.998 4.538 4.538 0 0 1-.53-1.247H11l.456-1.38h.603a2.183 2.183 0 0 1-.013-.242V16c0-.16.013-.322.04-.483H11.04l.483-1.394h.764a4.26 4.26 0 0 1 .63-1.313c.277-.385.61-.71.999-.979a4.589 4.589 0 0 1 1.3-.617c.478-.143.99-.214 1.535-.214z" fill-rule="evenodd"/></svg>