<svg viewBox="0 0 32 32" xmlns="http://www.w3.org/2000/svg"><path d="M16.15 25.325C23.29 18.86 28 14.585 28 10.25c0-3-2.25-5.25-5.25-5.25-2.31 0-4.56 1.485-5.34 3.54h-2.805C13.809 6.485 11.559 5 9.25 5 6.25 5 4 7.25 4 10.25c0 4.335 4.71 8.61 11.85 15.075l.15.15.15-.15zm-.136 5.807-2.92-2.905c-5.113-4.631-6.99-6.421-8.886-8.638C1.45 16.366 0 13.453 0 10.25 0 5.04 4.04 1 9.25 1c2.515 0 4.953 1.01 6.751 2.685C17.796 2.011 20.234 1 22.75 1 27.96 1 32 5.04 32 10.25c0 3.203-1.45 6.116-4.209 9.34-1.895 2.214-3.768 4-8.88 8.63l-2.897 2.912z" fill-rule="evenodd"/></svg>