<svg viewBox="0 0 32 32" xmlns="http://www.w3.org/2000/svg"><path d="M20 21c1.076 0 2 .454 2 2s-1.112 2-2 2h-5c-1.333 0-2 .667-2 2h8c.62 0 .817-.228.965-.342l6.823-5.244a2 2 0 1 1 2.437 3.172l-7.187 5.524c-.6.46-1.43.86-2.729.869a3.974 3.974 0 0 1-.18.006H0V25h3.987l2.566-2.453A6.29 6.29 0 0 1 10.665 21H20zM16 1a9 9 0 1 1 0 18 9 9 0 0 1 0-18zm0 2a7 7 0 1 0 0 14 7 7 0 0 0 0-14zm.6 3c.315 0 .633.029.955.086.322.057.586.136.794.236l-.526 1.35a2.21 2.21 0 0 0-.584-.181 3.803 3.803 0 0 0-.692-.065c-.186 0-.368.024-.547.07a1.976 1.976 0 0 0-.499.204 1.73 1.73 0 0 0-.413.338c-.121.135-.214.29-.278.46h2.841l-.375 1.116H14.51a.864.864 0 0 0-.021.188v.386c0 .068.004.13.01.187h2.585l-.365 1.105h-1.994c.05.15.129.291.236.423.107.133.24.247.397.344.157.096.332.171.525.225a2.3 2.3 0 0 0 .611.08c.53 0 .983-.11 1.362-.332l.397 1.362a2.968 2.968 0 0 1-.799.3 4.638 4.638 0 0 1-1.088.118c-.472 0-.896-.064-1.271-.193a3.194 3.194 0 0 1-.981-.53 3.13 3.13 0 0 1-.703-.8 3.63 3.63 0 0 1-.423-.997H12l.365-1.105h.482a1.747 1.747 0 0 1-.01-.193V10c0-.129.01-.257.032-.386h-.837l.386-1.115h.611c.115-.394.283-.744.505-1.051.221-.308.487-.569.798-.783a3.671 3.671 0 0 1 1.04-.493A4.265 4.265 0 0 1 16.602 6z"/></svg>