<svg viewBox="0 0 32 32" xmlns="http://www.w3.org/2000/svg"><path d="m24 24-1 4h8v4H1v-4h8l-.96-4H24zm.102-12s-1.032 6.103-2.387 7.493a3.515 3.515 0 0 1-4.43.499 2.77 2.77 0 0 0-.277.909l-.008.165v2.929h-2v-2.929c0-.825.305-1.801.934-2.721a3.514 3.514 0 0 1 .742-3.758C18.31 12.907 24.102 12 24.102 12zM7.616 14.932s4.233.469 5.242 1.345a2.421 2.421 0 0 1-3.173 3.656c-1.219-1.058-2.069-5.001-2.069-5.001zM15.998 1l15.062 9.291L31 18h-4l.043-5.487-11.04-6.81L5 12.515V18H1v-7.712L15.998 1z" fill-rule="evenodd"/></svg>