<svg viewBox="0 0 32 32" xmlns="http://www.w3.org/2000/svg"><path d="M32 14v2h-4v-2h4zM4 14v2H0v-2h4zM26.707 3.879l1.414 1.414-2.828 2.828-1.414-1.414 2.828-2.828zm-21.414 0L8.12 6.707 6.707 8.121 3.88 5.293l1.414-1.414zM17 0v4h-2V0h2zm2 32h-6v-1h-1.973v-3H9.034c-.021-2-.032-3.667-.032-5C9.002 21 6 19 6 15c0-5.376 4.383-9 10-9 5.665 0 10.001 3.613 10 9 0 4-3 6-3 8v5h-2v3h-2v1zm.06-9c0-2.808 2.94-5 2.94-8s-2.4-5-6-5c-3.535 0-6 2-6 5s3.034 5.176 3.034 8v2.061h6.026V23zM13 27h6v2h-6v-2z" fill-rule="evenodd"/></svg>