<svg xmlns="http://www.w3.org/2000/svg" viewBox="0 0 754.78 340.19"><path d="M226.17 84.39a69.88 69.88 0 0 1-33.4 8c-24.85 0-42.64-16.87-42.64-42.06 0-25.88 17.79-42.75 42.64-42.75 12.31 0 23.37 2.62 31.81 10.14L214 28.42c-5.13-5-13-7.87-21.09-7.87-16.64 0-27.7 12.77-27.7 28.84 0 17.22 11.06 30 27.7 30 7.3 0 13.91-1.36 18.93-4.21v-19h-16.56v-13h30.89zm26.68-16.64c.91 8.09 7.07 13 14.7 13 6.84 0 11.29-3.19 14.71-7.41l9.8 7.41a28.47 28.47 0 0 1-23.14 11c-16.53 0-29.75-11.52-29.75-28.73s13.22-28.73 29.75-28.73C284.2 34.23 294.57 45 294.57 64v3.76zm28-10.26c-.11-8-5.36-13-13.91-13-8.09 0-13.11 5.13-14.13 13zm25.92-21.89h13v8.55h.23c2.4-5.13 7.64-9.92 16.76-9.92 8.44 0 14.25 3.31 17.1 10.15 4-7 9.8-10.15 18-10.15 14.59 0 19.72 10.38 19.72 23.49v32.6H377.9v-31c0-6.84-2-12.77-10.14-12.77-8.55 0-11.74 7.07-11.74 14.14v29.63h-13.68v-32.6c0-6.73-2.74-11.18-9.35-11.18-9 0-12.54 6.62-12.54 13.91v29.87h-13.68zm110.69 32.15c.91 8.09 7.07 13 14.71 13 6.84 0 11.28-3.19 14.7-7.41l9.81 7.41a28.5 28.5 0 0 1-23.14 11C417 91.69 403.78 80.17 403.78 63S417 34.23 433.54 34.23c15.27 0 25.65 10.72 25.65 29.76v3.76zm28.05-10.26c-.12-8-5.36-13-13.91-13-8.1 0-13.11 5.13-14.14 13zm37.39 10.26c.91 8.09 7.06 13 14.7 13 6.84 0 11.29-3.19 14.71-7.41l9.8 7.41a28.49 28.49 0 0 1-23.14 11c-16.53 0-29.75-11.52-29.75-28.73S482.44 34.23 499 34.23c15.28 0 25.65 10.72 25.65 29.76v3.76zm28-10.26c-.11-8-5.36-13-13.91-13-8.09 0-13.11 5.13-14.13 13zm26.49-21.89h13v8.78h.23c2.51-5.47 7.64-10.15 16.76-10.15 14.71 0 20 10.38 20 21.55v34.54h-13.74v-27.7c0-6-.46-16.08-10-16.08-9 0-12.54 6.62-12.54 13.91v29.87h-13.71zm59.05 11.63V35.6h11.29V19.75h13.68V35.6h15v11.63h-15v23.94c0 5.47 1.59 8.89 7.63 8.89 2.4 0 5.7-.46 7.41-1.71v11.51c-2.85 1.37-7.64 1.83-10.83 1.83-14.47 0-17.89-6.5-17.89-19.38V47.23zm61.67 20.52c.91 8.09 7.07 13 14.71 13 6.84 0 11.28-3.19 14.7-7.41l9.81 7.41a28.5 28.5 0 0 1-23.14 11c-16.53 0-29.76-11.52-29.76-28.73s13.23-28.73 29.76-28.73c15.27 0 25.64 10.72 25.64 29.76v3.76zm28-10.26c-.12-8-5.36-13-13.91-13-8.1 0-13.11 5.13-14.14 13zm-505.54 72.16H193l34.77 80.71h-16.42l-7.52-18.47h-35l-7.3 18.47h-16.07zm18.24 49.93-12.42-32.83-12.66 32.83zM235 155.64h13v8.55h.23c2.4-5.13 7.64-9.92 16.76-9.92 8.44 0 14.25 3.31 17.1 10.15 4-7 9.8-10.15 18-10.15 14.59 0 19.72 10.38 19.72 23.49v32.6h-13.73v-31c0-6.84-2.05-12.76-10.14-12.76-8.55 0-11.74 7.06-11.74 14.13v29.64h-13.68v-32.6c0-6.73-2.74-11.17-9.35-11.17-9 0-12.54 6.61-12.54 13.9v29.87H235zm128.88 15.16a12.43 12.43 0 0 0-10.71-5.58c-3.65 0-8 1.71-8 5.81 0 9.81 29.52 1.82 29.52 23.14 0 13-12.42 17.56-23.6 17.56-8.43 0-15.73-2.17-21.31-8.44l9.12-8.55c3.53 3.88 7.18 6.73 13 6.73 4 0 9.12-1.94 9.12-6.27 0-11.29-29.52-2.39-29.52-23.26 0-12.19 10.94-17.67 22-17.67 7.29 0 15.05 2.28 19.49 8.33zm15.05-3.53v-11.63h11.28V139.8h13.68v15.84h15.05v11.63h-15.05v23.94c0 5.47 1.6 8.89 7.64 8.89 2.4 0 5.7-.46 7.41-1.71v11.51c-2.85 1.37-7.64 1.83-10.83 1.83-14.48 0-17.9-6.5-17.9-19.38v-25.08zm61.67 20.52c.91 8.09 7.07 13 14.71 13 6.84 0 11.28-3.19 14.7-7.41l9.81 7.41a28.51 28.51 0 0 1-23.15 10.95c-16.52 0-29.75-11.51-29.75-28.73s13.23-28.73 29.75-28.73c15.28 0 25.65 10.72 25.65 29.76v3.76zm28-10.26c-.11-8-5.35-13-13.9-13-8.1 0-13.11 5.13-14.14 13zm26.49-21.89h13.68v8.67h.23a17.43 17.43 0 0 1 16.19-10 17.88 17.88 0 0 1 4.9.8v13.22a27.45 27.45 0 0 0-6.61-1c-12.88 0-14.71 10.83-14.71 13.79v29.3h-13.68zm85.73 46.51h-.23c-4 6.62-11.17 9.58-18.81 9.58-16.87 0-27-12.54-27-28.73s10.83-28.73 26.45-28.73c10.26 0 15.73 4.79 18.58 8.33h.34v-38.42h13.68v86.18h-13zm-16.3-2.73c10 0 16.07-7.87 16.07-16.42s-6-16.41-16.07-16.41-16.08 7.86-16.08 16.41 6.04 16.42 16.08 16.42zm79 3.42h-.34c-3.88 6.15-10.26 8.89-17.56 8.89-10.15 0-20-5.59-20-16.42 0-17.78 20.75-19 34.43-19h3.42v-1.48c0-6.72-5.25-10.26-12.54-10.26a21.5 21.5 0 0 0-14.59 5.7l-7.19-7.18c6-6.16 14.6-8.78 23.26-8.78 23.37 0 23.37 16.87 23.37 24.63v31.46h-12.26zm-.8-17h-2.85c-7.52 0-20.52.57-20.52 8.44 0 5 5.13 7.18 9.58 7.18 9.34 0 13.79-4.9 13.79-12.54zm27.28-30.2h13v8.55h.23c2.39-5.13 7.64-9.92 16.76-9.92 8.43 0 14.25 3.31 17.1 10.15 4-7 9.8-10.15 18-10.15 14.59 0 19.72 10.38 19.72 23.49v32.6H741.1v-31c0-6.84-2.05-12.76-10.15-12.76-8.55 0-11.74 7.06-11.74 14.13v29.64h-13.68v-32.6c0-6.73-2.73-11.17-9.35-11.17-9 0-12.54 6.61-12.54 13.9v29.87H670zM0 320.19l30-30-30-30 20-20 30 30 30-30 20 20-30 30 30 30-20 20-30-30-30 30-20-20zM0 80l30-30L0 20 20 0l30 30L80 0l20 20-30 30 30 30-20 20-30-30-29.99 30L0 80zm0 120.2 30-30-30-30 20-20 30 30 30-30 20 20-30 30 30 30-20 20-30-30-30 30-20-20z" fill="#ec0000"/></svg>