<svg viewBox="0 0 100 68" xmlns="http://www.w3.org/2000/svg"><path d="M39.477 10.739a7.271 7.271 0 0 1-1.556.528 9.017 9.017 0 0 1-1.95.189c-.754 0-1.441-.12-2.063-.359a4.72 4.72 0 0 1-1.602-1.003 4.55 4.55 0 0 1-1.044-1.538 5.056 5.056 0 0 1-.375-1.974c0-.739.13-1.405.388-2a4.454 4.454 0 0 1 1.064-1.519 4.73 4.73 0 0 1 1.595-.964 5.73 5.73 0 0 1 1.997-.339c.744 0 1.425.107 2.042.32.617.212 1.114.493 1.49.84l-1.142 1.225c-.236-.26-.567-.482-.991-.665a3.473 3.473 0 0 0-1.386-.273 3.3 3.3 0 0 0-1.333.26 2.99 2.99 0 0 0-1.018.717 3.23 3.23 0 0 0-.65 1.069c-.153.408-.23.851-.23 1.329 0 .495.077.949.23 1.362.153.412.372.77.657 1.075.284.304.63.54 1.037.71.407.17.87.254 1.386.254.709 0 1.326-.109 1.852-.326V7.312h-1.957V5.956h3.559v4.783zm7.946-2.567v.208c0 .07-.004.14-.013.209h-4.794a1.54 1.54 0 0 0 .578 1.1c.166.135.355.242.565.32.21.078.429.117.657.117.394 0 .726-.071.998-.215.271-.143.494-.34.67-.593l1.05.834c-.621.834-1.523 1.251-2.705 1.251-.49 0-.942-.076-1.353-.228a3.197 3.197 0 0 1-1.07-.645 2.907 2.907 0 0 1-.71-1.023 3.502 3.502 0 0 1-.256-1.374c0-.504.085-.963.256-1.375.171-.413.405-.765.703-1.056.298-.29.65-.517 1.057-.677a3.556 3.556 0 0 1 1.32-.241c.438 0 .843.071 1.215.215.372.143.694.356.965.638.272.282.484.634.637 1.056.154.421.23.914.23 1.479zm-1.576-.704c0-.2-.028-.391-.085-.573a1.31 1.31 0 0 0-.27-.483 1.314 1.314 0 0 0-.466-.332 1.641 1.641 0 0 0-.663-.124c-.473 0-.873.142-1.202.424a1.54 1.54 0 0 0-.545 1.088h3.231zm10.626-2.684c.411 0 .764.071 1.057.215.293.143.534.332.722.566.189.235.327.504.414.808.088.304.132.617.132.939v3.909H57.22V7.755c0-.183-.013-.374-.039-.574-.026-.2-.083-.38-.17-.54a1.127 1.127 0 0 0-.362-.398c-.153-.104-.357-.156-.61-.156a1.21 1.21 0 0 0-.631.156c-.175.104-.32.239-.433.404-.114.165-.197.35-.25.554a2.424 2.424 0 0 0-.079.606v3.414H53.07v-3.78c0-.39-.094-.714-.282-.97-.189-.256-.484-.384-.887-.384a1.225 1.225 0 0 0-1.044.534c-.11.156-.193.337-.25.54a2.34 2.34 0 0 0-.085.62v3.44h-1.576V4.966h1.497v1.003h.027c.07-.156.164-.304.282-.443a2.19 2.19 0 0 1 .42-.378c.162-.113.348-.202.558-.267.21-.065.443-.097.697-.097.49 0 .897.108 1.221.325.324.218.573.504.749.86.21-.382.49-.675.84-.88.35-.203.762-.305 1.235-.305zm10.179 3.388v.208c0 .07-.005.14-.013.209h-4.794a1.54 1.54 0 0 0 .578 1.1c.166.135.354.242.564.32.21.078.43.117.657.117.394 0 .727-.071.998-.215.272-.143.495-.34.67-.593l1.05.834c-.62.834-1.523 1.251-2.705 1.251-.49 0-.941-.076-1.353-.228a3.197 3.197 0 0 1-1.07-.645 2.907 2.907 0 0 1-.71-1.023 3.502 3.502 0 0 1-.255-1.374c0-.504.085-.963.256-1.375.17-.413.405-.765.702-1.056.298-.29.65-.517 1.058-.677a3.556 3.556 0 0 1 1.32-.241c.438 0 .843.071 1.215.215.372.143.694.356.965.638.271.282.484.634.637 1.056.153.421.23.914.23 1.479zm-1.576-.704c0-.2-.029-.391-.086-.573a1.31 1.31 0 0 0-.269-.483 1.314 1.314 0 0 0-.466-.332 1.641 1.641 0 0 0-.663-.124c-.473 0-.874.142-1.202.424a1.54 1.54 0 0 0-.545 1.088h3.23zm9.115.704v.208c0 .07-.004.14-.013.209h-4.794a1.54 1.54 0 0 0 .578 1.1 1.971 1.971 0 0 0 1.221.437c.394 0 .727-.071.998-.215.272-.143.495-.34.67-.593l1.051.834c-.622.834-1.524 1.251-2.706 1.251-.49 0-.94-.076-1.352-.228a3.197 3.197 0 0 1-1.07-.645 2.907 2.907 0 0 1-.71-1.023 3.502 3.502 0 0 1-.256-1.374c0-.504.085-.963.256-1.375.17-.413.405-.765.703-1.056.297-.29.65-.517 1.057-.677a3.556 3.556 0 0 1 1.32-.241c.438 0 .843.071 1.215.215.372.143.694.356.965.638.272.282.484.634.637 1.056.153.421.23.914.23 1.479zm-1.576-.704c0-.2-.029-.391-.085-.573a1.31 1.31 0 0 0-.27-.483 1.314 1.314 0 0 0-.466-.332 1.641 1.641 0 0 0-.663-.124c-.473 0-.874.142-1.202.424a1.54 1.54 0 0 0-.545 1.088h3.23zm3.1-2.502h1.497v1.003h.026c.14-.312.383-.588.73-.827.345-.239.754-.358 1.227-.358.412 0 .764.071 1.057.215.294.143.535.332.723.566.188.235.326.504.414.808.087.304.13.617.13.939v3.909h-1.575V7.755c0-.183-.013-.374-.04-.574-.026-.2-.083-.38-.17-.54a1.127 1.127 0 0 0-.362-.398c-.153-.104-.356-.156-.61-.156s-.473.05-.657.15c-.184.1-.335.228-.453.384a1.697 1.697 0 0 0-.27.54c-.06.205-.091.411-.091.62v3.44h-1.576V4.966zm6.738 1.251V4.966h1.103V3.155h1.55v1.811h1.576v1.251h-1.576v2.906c0 .278.05.508.15.69.101.183.327.274.677.274.105 0 .219-.01.342-.032a1.42 1.42 0 0 0 .328-.098l.052 1.225c-.14.052-.306.093-.499.124-.192.03-.376.045-.551.045-.42 0-.762-.058-1.025-.176a1.551 1.551 0 0 1-.624-.482 1.778 1.778 0 0 1-.315-.703 4.06 4.06 0 0 1-.085-.854V6.217h-1.103zM93.84 8.172v.208c0 .07-.004.14-.013.209h-4.794a1.54 1.54 0 0 0 .578 1.1 1.971 1.971 0 0 0 1.221.437c.394 0 .727-.071.998-.215.272-.143.495-.34.67-.593l1.051.834c-.622.834-1.524 1.251-2.706 1.251-.49 0-.94-.076-1.352-.228a3.197 3.197 0 0 1-1.07-.645 2.907 2.907 0 0 1-.71-1.023 3.502 3.502 0 0 1-.256-1.374c0-.504.085-.963.256-1.375.17-.413.405-.765.703-1.056.297-.29.65-.517 1.057-.677a3.556 3.556 0 0 1 1.32-.241c.438 0 .843.071 1.215.215.372.143.694.356.965.638.272.282.484.634.637 1.056.153.421.23.914.23 1.479zm-1.576-.704c0-.2-.029-.391-.085-.573a1.31 1.31 0 0 0-.27-.483 1.314 1.314 0 0 0-.466-.332 1.641 1.641 0 0 0-.663-.124c-.473 0-.874.142-1.202.424a1.54 1.54 0 0 0-.545 1.088h3.23zM36.35 20.734l-1.43-3.754-1.457 3.753h2.89zm-2.101-5.708h1.431l4.006 9.226h-1.891l-.867-2.11h-4.032l-.84 2.11h-1.853l4.046-9.226zm13.804 2.789c.411 0 .764.072 1.057.215.293.143.534.332.722.567.189.234.327.504.414.808.088.304.131.617.131.938v3.91h-1.576v-3.467c0-.182-.013-.374-.039-.573-.026-.2-.083-.38-.17-.541a1.127 1.127 0 0 0-.362-.398c-.153-.104-.357-.156-.61-.156a1.21 1.21 0 0 0-.631.156c-.175.105-.32.24-.434.404-.113.165-.197.35-.25.554a2.424 2.424 0 0 0-.078.606v3.414h-1.576v-3.779c0-.39-.094-.714-.282-.97-.189-.257-.484-.385-.887-.385a1.225 1.225 0 0 0-1.044.534c-.11.157-.193.337-.25.541a2.29 2.29 0 0 0-.085.62v3.44h-1.576v-6.256h1.497v1.004h.026c.07-.157.165-.304.283-.443.118-.14.258-.265.42-.378.162-.113.348-.202.558-.267.21-.066.442-.098.696-.098.49 0 .898.108 1.222.326.324.217.573.504.749.86.21-.383.49-.676.84-.88.35-.204.762-.306 1.235-.306zm7.618 1.85a1.816 1.816 0 0 0-.578-.475 1.637 1.637 0 0 0-.801-.202c-.254 0-.486.052-.697.156a.538.538 0 0 0-.315.521c0 .244.116.415.348.515.232.1.572.202 1.018.306.237.052.475.122.716.209.24.087.46.202.657.345.197.143.356.322.48.534.122.213.183.472.183.776 0 .382-.072.706-.217.97-.144.266-.337.48-.578.646-.24.165-.52.284-.84.358-.32.074-.65.11-.992.11-.49 0-.967-.088-1.431-.266a3.028 3.028 0 0 1-1.156-.763l1.037-.964a2.06 2.06 0 0 0 1.616.782c.114 0 .23-.013.348-.04.118-.025.228-.067.328-.123a.678.678 0 0 0 .243-.228.639.639 0 0 0 .092-.352c0-.26-.12-.447-.361-.56-.24-.113-.602-.226-1.084-.34a5.241 5.241 0 0 1-.69-.201 2.256 2.256 0 0 1-.597-.326 1.512 1.512 0 0 1-.42-.502c-.105-.2-.158-.447-.158-.742 0-.348.073-.648.217-.9a1.86 1.86 0 0 1 .571-.618c.237-.161.504-.28.802-.359.297-.078.604-.117.919-.117.455 0 .9.078 1.333.234a2.25 2.25 0 0 1 1.031.717l-1.024.9zm1.47-.417v-1.25h1.104v-1.812h1.55v1.811h1.576v1.251h-1.576v2.906c0 .278.05.509.15.691.102.182.327.274.677.274.105 0 .22-.011.342-.033.122-.022.232-.054.328-.098l.053 1.225c-.14.052-.307.094-.5.124a3.58 3.58 0 0 1-.551.046c-.42 0-.762-.059-1.024-.176a1.551 1.551 0 0 1-.624-.482 1.778 1.778 0 0 1-.316-.704 4.06 4.06 0 0 1-.085-.854v-2.919h-1.103zm11.388 1.955v.209c0 .069-.004.139-.013.208h-4.794a1.54 1.54 0 0 0 .578 1.101c.166.135.355.241.565.32.21.078.429.117.656.117.394 0 .727-.072.999-.215.271-.144.494-.341.67-.593l1.05.834c-.621.834-1.523 1.25-2.705 1.25-.49 0-.942-.075-1.353-.227a3.197 3.197 0 0 1-1.07-.645 2.907 2.907 0 0 1-.71-1.023 3.502 3.502 0 0 1-.256-1.375c0-.504.085-.962.256-1.375.17-.413.405-.764.703-1.055.298-.291.65-.517 1.057-.678.407-.16.847-.241 1.32-.241.438 0 .843.072 1.215.215.372.143.694.356.965.638.272.283.484.635.637 1.056.154.421.23.914.23 1.479zm-1.576-.704c0-.2-.028-.39-.085-.573a1.31 1.31 0 0 0-.27-.482 1.314 1.314 0 0 0-.466-.333 1.641 1.641 0 0 0-.663-.123c-.473 0-.873.14-1.202.423a1.54 1.54 0 0 0-.545 1.088h3.231zm3.1-2.502h1.51v1.043h.027c.175-.365.42-.66.735-.886a1.845 1.845 0 0 1 1.103-.34c.062 0 .127.003.197.007.07.005.132.016.184.033v1.433a1.87 1.87 0 0 0-.486-.065c-.359 0-.648.065-.867.196-.218.13-.39.286-.512.469-.122.182-.206.37-.25.56a2.164 2.164 0 0 0-.065.456v3.35h-1.576v-6.256zM75.82 21.1c0 .243.037.486.112.73.074.243.186.46.334.651.15.191.338.348.565.47.228.12.495.182.801.182.29 0 .548-.059.775-.176.228-.118.423-.272.585-.463.162-.191.284-.406.368-.645a2.186 2.186 0 0 0 0-1.453 1.982 1.982 0 0 0-.952-1.12 1.619 1.619 0 0 0-.776-.183c-.306 0-.573.059-.8.176a1.68 1.68 0 0 0-.566.462c-.148.192-.26.407-.334.646-.075.238-.112.48-.112.723zm5.188 3.153H79.51v-.938h-.027a2.139 2.139 0 0 1-.913.834 2.81 2.81 0 0 1-1.254.287 3.02 3.02 0 0 1-1.294-.267 2.969 2.969 0 0 1-.971-.717 3.174 3.174 0 0 1-.618-1.056 3.822 3.822 0 0 1-.216-1.296c0-.46.074-.89.223-1.29.149-.4.359-.747.63-1.043a2.945 2.945 0 0 1 2.207-.951 2.8 2.8 0 0 1 1.373.339 2.366 2.366 0 0 1 .741.638h.04v-4.391h1.576v9.851zm5.805-2.854h-.354c-.254 0-.521.011-.802.033-.28.022-.538.07-.774.143a1.658 1.658 0 0 0-.592.313.693.693 0 0 0-.236.554.662.662 0 0 0 .355.612c.105.061.223.105.354.13.132.027.263.04.394.04.543 0 .955-.143 1.235-.43.28-.287.42-.678.42-1.173v-.222zm.027 2.06h-.04c-.158.277-.411.505-.762.684a2.6 2.6 0 0 1-1.195.267c-.254 0-.519-.033-.794-.098a2.375 2.375 0 0 1-.762-.326 1.9 1.9 0 0 1-.578-.6c-.153-.247-.23-.553-.23-.918 0-.47.134-.843.4-1.12a2.604 2.604 0 0 1 1.032-.64 5.84 5.84 0 0 1 1.398-.292 16.19 16.19 0 0 1 1.504-.072v-.156c0-.391-.142-.68-.427-.867-.284-.187-.623-.28-1.018-.28-.332 0-.652.07-.958.208-.307.14-.56.309-.762.509l-.814-.952c.359-.33.772-.577 1.24-.743a4.26 4.26 0 0 1 1.426-.247c.56 0 1.022.078 1.385.234.364.157.65.361.86.613.21.252.358.534.44.847.084.313.126.625.126.938v3.805H86.84v-.795zm10.835-5.643c.412 0 .764.072 1.058.215.293.143.534.332.722.567.188.234.326.504.414.808.087.304.131.617.131.938v3.91h-1.576v-3.467c0-.182-.013-.374-.04-.573-.026-.2-.083-.38-.17-.541a1.127 1.127 0 0 0-.361-.398c-.154-.104-.357-.156-.611-.156a1.21 1.21 0 0 0-.63.156c-.176.105-.32.24-.434.404-.114.165-.197.35-.25.554a2.424 2.424 0 0 0-.078.606v3.414h-1.576v-3.779c0-.39-.095-.714-.283-.97-.188-.257-.484-.385-.886-.385a1.225 1.225 0 0 0-1.045.534 1.805 1.805 0 0 0-.25.541c-.056.204-.084.41-.084.62v3.44h-1.577v-6.256h1.498v1.004h.026c.07-.157.164-.304.282-.443.119-.14.259-.265.42-.378.163-.113.349-.202.559-.267.21-.066.442-.098.696-.098.49 0 .897.108 1.221.326.324.217.574.504.75.86.21-.383.49-.676.84-.88.35-.204.761-.306 1.234-.306zM0 64.002l5.926-5.997L0 52.008l3.95-3.997 5.926 5.996 5.926-5.996 3.95 3.997-5.926 5.997 5.926 5.997L15.802 68l-5.926-5.997L3.95 68 0 64.002zm0-48.01 5.926-5.997L0 3.998 3.95 0l5.926 5.997L15.802 0l3.95 3.998-5.926 5.997 5.926 5.997-3.95 3.997-5.926-5.996-5.926 5.996L0 15.992zm0 24.025 5.926-5.997L0 28.023l3.95-3.998 5.926 5.997 5.926-5.997 3.95 3.998-5.926 5.997 5.926 5.997-3.95 3.998-5.926-5.997-5.926 5.997L0 40.017z" fill="#EC0000"/></svg>