<svg xmlns="http://www.w3.org/2000/svg" viewBox="0 0 1024 966.1"><path d="M998 2.2c2.5-1.4 5.2-2.2 8.1-2.2 4.7 0 8.8 1.7 12.2 5.1 3.4 3.4 5.2 7.5 5.2 12.1v793.6c0 7.2-3.1 12.2-9.2 15.1L754 963.9c-2.5 1.4-5.2 2.2-8.1 2.2-4.7 0-8.8-1.7-12.2-5.1-3.4-3.4-5.2-7.5-5.2-12.1V155.3c0-7.2 3.1-12.2 9.2-15.1L998 2.2zm-641.6 15c0-4.7 1.7-8.7 5.1-12.1C364.9 1.7 369 0 373.7 0c2.9 0 5.4.5 7.6 1.6l276.2 138c6.5 3.6 9.7 8.8 9.7 15.6v793.6c0 4.7-1.7 8.7-5.1 12.1-3.4 3.4-7.5 5.1-12.1 5.1-2.9 0-5.4-.5-7.6-1.6l-276.2-138c-6.5-3.6-9.7-8.8-9.7-15.6V17.2zM9.2 140.2C3.1 143 0 148.1 0 155.3v793.6c0 4.7 1.7 8.7 5.1 12.1 3.4 3.4 7.5 5.1 12.2 5.1 2.9 0 5.6-.7 8.1-2.2l260.3-138c6.1-2.9 9.2-7.9 9.2-15.1V17.2c0-4.7-1.7-8.7-5.1-12.1-3.4-3.4-7.5-5.1-12.2-5.1-2.9 0-5.6.7-8.1 2.2L9.2 140.2z"/></svg>