<svg xmlns="http://www.w3.org/2000/svg" viewBox="0 0 705.3 1024"><path d="M630.6 673.3l1.8 350.7-299.8-221.3c-101.3-3.9-230.4-65.6-292.9-182.5-89.6-167.4-22-373.3 150.9-460 1.1-.6 2.3-1.1 3.4-1.7C196 70.9 267 0 352.7 0c86.6 0 156.7 70.9 158.7 158.5 64 31.2 118.8 81.5 154.3 147.7 65.5 122.3 47 265.2-35.1 367.1zM202.1 214.4C66 291.3 14.7 458.9 88 595.9c75.7 141.4 255.6 196.7 401.7 123.4C635.9 646 693 472 617.3 330.6c-26.9-50.3-67-89.7-114-116.3-9.7 29.6-27.5 55.3-50.7 74.6l105.9 257.3c0 1 0 3.1 1 5.1 0 30.8-23 59.6-64.9 79.2-38 17.5-88.9 27.8-141.8 27.8-52.9 0-103.9-10.3-141.8-27.8-41.9-20.6-64.9-48.3-64.9-79.2 0-2.1 1-3.1 1-5.1L253 288.9c-23.4-19.2-41.2-44.9-50.9-74.5z"/></svg>