<svg xmlns="http://www.w3.org/2000/svg" viewBox="0 0 32 32"><path d="M22.3 19.9c0 1-.8 1.9-2.1 2.5-1.5.6-3 .9-4.6.9-1.6 0-3.2-.3-4.6-.9-1.4-.6-2.1-1.5-2.1-2.5v-.2l3.5-8.1v-.1c-2.3-1.8-2.8-5.1-1-7.4s5.1-2.8 7.4-1 2.8 5.1 1 7.4c-.3.4-.6.7-1 1v.1l3.5 8.1c-.1.1 0 .1 0 .2zM30 30l-1.4-5.3-.9-3.2c.9-1.8 1.3-3.8 1.3-5.7v-.5c0-5.1-2.9-9.7-7.5-11.9.8 1.2 1.2 2.6 1.2 4v.3l.3.3c2 1.9 3.1 4.6 3.1 7.3v.5c0 5.7-4.7 10.4-10.4 10.4h-.5c-5.7 0-10.4-4.7-10.4-10.4v-.5c0-2.8 1.1-5.4 3-7.3l.3-.3v-.3c0-1.4.4-2.8 1.2-4C4.9 5.6 2 10.2 2 15.3v.5C2 23.1 8 29 15.3 29h.5c2 0 4-.4 5.7-1.3l3.2.9L30 30z"/></svg>