<svg viewBox="0 0 32 32" xmlns="http://www.w3.org/2000/svg"><path d="M25 28v-3a.9.9 0 0 0-1-1h-3.2l-.9-3.2-1.9.4 1 3.8v3h-5V15.9h.2a4 4 0 0 0 2.8 1.3h.1a2.4 2.4 0 0 0 1.4-.3 4 4 0 0 0 2.5-3.8v-.6a4.1 4.1 0 0 0-2-2.8 2.9 2.9 0 0 0 .4-1.7 3.4 3.4 0 0 0-2.9-3.4v-.7A3.4 3.4 0 0 0 14.6.8a4.4 4.4 0 0 0-3.2 0 3.4 3.4 0 0 0-1.9 3.1v.7A3.4 3.4 0 0 0 6.6 8 2.9 2.9 0 0 0 7 9.6a4.1 4.1 0 0 0-2 2.8v.6a4 4 0 0 0 2.5 3.8 2.4 2.4 0 0 0 1.4.3H9a4 4 0 0 0 2.8-1.1h.2v12H0v4h32v-4h-7zm-2 0h-2v-2h2v2z" fill-rule="evenodd"/></svg>