<svg viewBox="0 0 32 32" xmlns="http://www.w3.org/2000/svg"><path d="M7 27.5a2.5 2.5 0 1 1-5 0 2.5 2.5 0 0 1 5 0zM27.5 7a2.5 2.5 0 1 0 0-5 2.5 2.5 0 0 0 0 5zm-1 1.3V15l2 2V8.3l-1 .2-1-.2zM15.2 26.8l-.3-.3H8.4a3.1 3.1 0 0 1 .1 1 3.4 3.4 0 0 1-.1 1h8.5l-.3-.3-1.4-1.4zm8.5-21.3a3.6 3.6 0 0 1-.2-1 3 3 0 0 1 .2-1h-8.6l2 2h6.6zM5.5 23.6v-6.5l-.2-.2-1.4-1.5-.4-.3v8.5h2zM9.1.3.4 9.1l2.1 2.1 3.6-3.6L7.5 9l-3.6 3.6L5.3 14l2.2-2.1 1.4 1.4-2.2 2.1 1.4 1.5 3.6-3.6 1.4 1.4-3.5 3.6 1.4 1.4 2.1-2.2 1.5 1.4-2.2 2.2 1.4 1.4 3.6-3.6 1.4 1.4-3.6 3.6 1.4 1.4 2.2-2.1 1.4 1.4-2.2 2.2 1.5 1.4 3.5-3.6 1.5 1.4-3.6 3.6 2.1 2.1 8.7-8.7L9.1.3z" fill-rule="evenodd"/></svg>