<?xml version="1.0" encoding="UTF-8"?>
<svg viewBox="0 0 32 32" version="1.1" xmlns="http://www.w3.org/2000/svg" xmlns:xlink="http://www.w3.org/1999/xlink">
    <path d="M11,10.4520548 L11,32 L17.6956522,32 L17.6956522,21.3013699 C17.6956522,18.4383562 18.3043478,15.7260274 21.8043478,15.7260274 C25.3043478,15.7260274 25.3043478,18.890411 25.3043478,21.4520548 L25.3043478,32 L32,32 L32,20.2465753 C32,14.369863 30.7826087,10 23.9347826,10 C20.5869565,10 18.4565217,11.8082192 17.5434783,13.4657534 L17.3913043,13.4657534 L17.3913043,10.4520548 L11,10.4520548 Z M0,11 L7,11 L7,32 L0,32 L0,11 Z M4,8 C1.790861,8 0,6.209139 0,4 C0,1.790861 1.790861,0 4,0 C6.209139,0 8,1.790861 8,4 C8,6.209139 6.209139,8 4,8 Z" id="path-1"></path>
</svg>